
<svg version="1.0" xmlns="http://www.w3.org/2000/svg"
 width="123.000000pt" height="197.000000pt" viewBox="0 0 123.000000 197.000000"
 preserveAspectRatio="xMidYMid meet">

<g transform="translate(0.000000,197.000000) scale(0.100000,-0.100000)"
fill="#000000" stroke="none">
<path d="M445 1842 c-162 -56 -253 -169 -263 -330 -4 -56 -9 -75 -21 -80 -83
-30 -141 -109 -141 -192 0 -49 3 -56 40 -92 32 -30 39 -42 32 -55 -12 -23 -5
-43 15 -43 12 0 14 7 9 35 -7 33 -5 35 20 35 22 0 25 -3 20 -22 -3 -13 -9 -47
-12 -75 -6 -45 -4 -53 9 -53 13 0 17 14 19 77 2 62 6 78 19 81 11 2 18 -7 23
-30 3 -17 15 -41 26 -53 13 -14 28 -66 49 -170 36 -178 91 -422 119 -520 11
-38 21 -76 23 -84 2 -9 -5 -17 -16 -19 -65 -13 -88 -100 -39 -148 26 -27 61
-29 108 -9 17 7 18 5 12 -16 -18 -66 -19 -79 -2 -79 12 0 16 10 16 40 0 42 9
50 30 25 7 -8 18 -15 26 -15 7 0 15 -12 17 -27 l4 -28 2 26 c0 15 8 29 16 33
12 4 14 0 9 -18 -6 -27 14 -46 26 -25 5 7 6 26 3 41 -4 19 0 35 10 46 25 28
76 136 112 240 67 194 151 480 185 632 9 37 24 68 47 93 18 21 36 51 39 67 6
28 9 29 54 27 57 -2 100 24 114 69 4 16 12 37 17 46 15 30 11 134 -6 148 -24
20 -84 15 -111 -11 l-24 -22 0 46 c0 36 4 49 19 57 45 24 30 97 -22 107 -19 4
-37 19 -54 47 -60 97 -161 170 -279 200 -84 22 -234 20 -299 -2z m255 -6 c219
-47 369 -213 370 -411 0 -37 3 -42 35 -53 84 -31 113 -126 54 -176 -34 -29
-84 -34 -114 -12 -18 13 -23 11 -53 -15 -38 -34 -99 -39 -159 -14 -45 19 -43
19 -43 -9 0 -39 -42 -90 -87 -105 -37 -13 -45 -13 -87 3 -29 11 -60 34 -82 61
l-36 42 -50 -33 c-28 -19 -62 -34 -78 -34 -39 0 -78 34 -86 75 -3 19 -7 35 -8
35 0 0 -23 -11 -50 -25 -56 -29 -121 -33 -153 -10 -50 35 -51 137 -2 199 34
43 103 78 158 79 32 1 44 5 35 10 -8 5 -29 5 -46 2 l-31 -7 5 69 c17 238 243
385 508 329z m315 -726 c-44 -84 -196 -139 -395 -141 -60 0 -70 -2 -50 -10 16
-7 61 -6 133 1 60 6 111 9 113 7 4 -3 -95 -148 -117 -172 -6 -5 -29 11 -62 43
-29 29 -57 52 -62 52 -5 0 17 -27 49 -59 l59 -60 -52 -65 -53 -66 -26 20 c-15
11 -47 37 -71 58 l-45 39 36 44 c52 65 56 81 6 27 -24 -27 -48 -48 -54 -48 -5
0 -37 28 -71 63 -56 56 -63 67 -69 116 -7 53 -7 53 15 41 13 -6 25 -10 27 -7
3 2 -9 10 -25 16 -42 18 -71 53 -77 93 -5 29 -2 37 20 51 26 17 26 17 26 -9 0
-39 50 -84 95 -84 41 0 69 12 105 46 l26 24 38 -46 c42 -50 87 -74 136 -74 63
0 130 57 130 111 0 34 -2 33 43 14 67 -28 153 -12 173 32 7 16 8 16 11 -4 2
-12 -3 -36 -12 -53z m-75 -127 c-5 -16 -25 -86 -46 -158 -20 -71 -40 -134 -45
-139 -8 -9 -49 15 -113 67 l-28 23 66 100 c56 84 72 102 109 116 61 24 68 23
57 -9z m-555 -257 c-15 -20 -31 -36 -35 -36 -4 0 -15 33 -25 73 -9 39 -19 81
-22 92 -3 13 15 0 52 -36 l58 -57 -28 -36z m362 -2 c27 -20 58 -41 71 -47 12
-6 22 -15 22 -22 0 -15 -88 -135 -99 -135 -16 0 -146 101 -143 111 2 10 94
129 99 129 2 0 24 -16 50 -36z m-253 -31 c34 -32 63 -61 64 -66 2 -4 -18 -34
-45 -67 l-48 -60 -52 52 c-34 34 -53 62 -58 85 -5 30 -2 39 32 74 21 21 40 39
42 39 2 0 32 -26 65 -57z m161 -134 c39 -28 71 -55 73 -60 2 -4 -17 -36 -43
-69 -49 -64 -57 -66 -108 -22 -9 8 -19 13 -22 10 -3 -3 13 -18 35 -33 25 -18
37 -32 32 -39 -45 -60 -86 -106 -96 -106 -6 1 -28 15 -49 33 -29 25 -41 46
-53 91 l-15 59 30 30 c27 27 32 29 48 16 16 -13 17 -12 5 3 -8 10 -10 23 -5
31 12 20 87 106 93 107 3 0 37 -23 75 -51z m-236 -33 c33 -34 33 -34 15 -60
-11 -14 -22 -26 -25 -26 -4 0 -13 27 -22 60 -8 33 -12 60 -8 60 4 0 22 -15 40
-34z m382 -9 c-11 -28 -31 -37 -31 -14 0 18 33 63 37 50 2 -5 -1 -22 -6 -36z
m-25 -42 c6 -15 -32 -155 -42 -155 -14 0 -75 33 -72 39 10 22 93 131 100 131
5 0 11 -7 14 -15z m-85 -152 c19 -9 35 -17 37 -19 6 -4 -59 -154 -67 -154 -9
0 -111 69 -111 76 0 8 94 114 101 114 3 0 21 -7 40 -17z m-199 -76 c24 -20 25
-24 12 -41 -16 -23 -19 -21 -39 27 -17 42 -11 46 27 14z m103 -72 c30 -20 55
-39 55 -43 0 -14 -55 -62 -71 -62 -17 0 -60 43 -79 78 -10 20 -9 27 6 43 23
25 25 25 89 -16z"/>
<path d="M536 1801 c-3 -4 6 -6 19 -3 14 2 25 6 25 8 0 8 -39 4 -44 -5z"/>
<path d="M384 1755 c-42 -25 -81 -69 -103 -115 l-12 -25 18 25 c41 56 70 85
112 112 55 34 42 37 -15 3z"/>
<path d="M517 1632 c-14 -14 -21 -14 -37 -4 -30 19 -38 14 -11 -7 24 -18 24
-19 7 -46 -10 -15 -16 -29 -13 -31 2 -3 12 7 21 22 l18 26 25 -24 c25 -22 25
-23 14 -1 -6 12 -16 25 -22 28 -7 5 -4 14 7 26 22 24 14 34 -9 11z"/>
<path d="M730 1632 c22 -18 22 -19 5 -46 -10 -14 -15 -29 -13 -32 3 -2 13 7
22 22 l18 26 24 -23 c27 -26 33 -15 7 13 -14 16 -15 22 -5 39 12 19 11 19 -8
9 -14 -7 -26 -8 -39 0 -30 16 -36 12 -11 -8z"/>
<path d="M483 1453 c-13 -8 -23 -20 -23 -25 0 -6 6 -6 14 1 25 21 30 -8 7 -40
-33 -45 -37 -83 -11 -109 26 -26 59 -21 109 18 45 36 49 38 104 51 47 11 102
39 93 48 -2 3 -19 -3 -37 -13 -53 -27 -126 -23 -181 9 -56 32 -64 43 -48 62
16 19 1 18 -27 -2z m46 -66 c8 -11 6 -18 -9 -32 -11 -10 -20 -23 -20 -28 0 -6
11 0 24 12 19 18 31 22 53 16 l28 -7 -37 -34 c-39 -35 -75 -43 -96 -22 -17 17
-15 38 8 76 22 35 32 39 49 19z"/>
<path d="M98 1333 c-15 -17 -37 -74 -25 -63 3 3 17 22 31 43 26 38 22 51 -6
20z"/>
<path d="M355 980 c19 -8 83 -14 74 -6 -2 2 -24 6 -49 9 -30 4 -38 3 -25 -3z"/>
<path d="M1076 1723 c-12 -12 -6 -33 9 -33 8 0 15 6 15 14 0 17 -14 28 -24 19z"/>
<path d="M1202 1618 c-15 -15 -15 -41 0 -56 21 -21 28 -13 28 28 0 41 -7 49
-28 28z"/>
<path d="M1030 965 c0 -8 7 -15 15 -15 8 0 15 7 15 15 0 8 -7 15 -15 15 -8 0
-15 -7 -15 -15z"/>
<path d="M134 909 c-8 -14 11 -33 25 -25 11 7 4 36 -9 36 -5 0 -12 -5 -16 -11z"/>
<path d="M234 339 c-19 -22 -13 -43 18 -63 36 -22 64 37 32 68 -20 21 -27 20
-50 -5z"/>
<path d="M222 184 c4 -21 22 -23 26 -1 2 10 -3 17 -13 17 -10 0 -15 -6 -13
-16z"/>
</g>
</svg>
