<?xml version="1.0" standalone="no"?>
<!DOCTYPE svg PUBLIC "-//W3C//DTD SVG 20010904//EN"
 "http://www.w3.org/TR/2001/REC-SVG-20010904/DTD/svg10.dtd">
<svg version="1.0" xmlns="http://www.w3.org/2000/svg"
 width="132.000000pt" height="251.000000pt" viewBox="0 0 132.000000 251.000000"
 preserveAspectRatio="xMidYMid meet">

<g transform="translate(0.000000,251.000000) scale(0.100000,-0.100000)"
fill="#000000" stroke="none">
<path d="M724 2443 c-12 -39 -23 -49 -85 -80 -50 -25 -71 -43 -96 -82 -35 -53
-23 -48 -177 -78 -17 -3 -58 -32 -97 -69 -60 -56 -73 -64 -108 -64 -32 0 -41
-4 -48 -22 -11 -33 -4 -943 8 -1005 22 -111 64 -133 258 -133 l140 0 3 -377 3
-378 26 -56 c43 -91 120 -128 155 -74 41 63 46 107 56 515 6 289 12 396 21
402 7 4 72 8 145 8 180 0 201 11 222 120 6 32 6 79 -1 132 -5 45 -11 190 -13
322 -4 271 -21 532 -42 620 -16 67 -103 206 -157 252 -48 40 -106 64 -160 64
-37 0 -49 -4 -53 -17z m73 -335 c-14 -12 -15 -25 -5 -133 20 -213 9 -714 -16
-716 -6 0 -23 -2 -38 -4 -16 -2 -28 -1 -28 3 -1 4 -8 149 -17 322 -18 343 -21
495 -10 523 5 14 19 17 69 17 51 0 59 -2 45 -12z m-379 -90 c7 -38 12 -208 14
-428 3 -408 11 -366 -64 -369 -21 -1 -26 -5 -22 -18 4 -14 2 -13 -7 2 -16 25
-28 312 -26 623 2 209 3 225 21 238 11 8 32 14 46 14 24 0 27 -5 38 -62z m325
-1150 c3 -35 2 -209 -3 -388 -6 -253 -12 -336 -24 -377 -15 -46 -38 -83 -52
-83 -22 0 -67 37 -83 68 -36 70 -41 145 -39 491 3 379 -9 338 108 344 36 2 70
4 76 5 7 1 13 -23 17 -60z"/>
<path d="M560 841 c0 -28 5 -53 10 -56 6 -4 10 15 10 49 0 31 -4 56 -10 56 -5
0 -10 -22 -10 -49z"/>
<path d="M610 846 c0 -14 5 -28 10 -31 6 -4 10 7 10 24 0 17 -4 31 -10 31 -5
0 -10 -11 -10 -24z"/>
<path d="M695 840 c3 -5 8 -10 11 -10 2 0 4 5 4 10 0 6 -5 10 -11 10 -5 0 -7
-4 -4 -10z"/>
<path d="M703 760 c0 -30 2 -43 4 -27 2 15 2 39 0 55 -2 15 -4 2 -4 -28z"/>
<path d="M620 772 c0 -18 5 -32 10 -32 6 0 8 11 4 28 -10 39 -14 40 -14 4z"/>
<path d="M617 664 c-4 -4 -7 -23 -6 -43 l1 -36 9 33 c11 36 9 58 -4 46z"/>
<path d="M680 517 c0 -47 4 -88 10 -92 8 -5 3 164 -6 174 -2 2 -4 -34 -4 -82z"/>
<path d="M643 535 c0 -33 2 -45 4 -27 2 18 2 45 0 60 -2 15 -4 0 -4 -33z"/>
<path d="M644 320 c0 -63 1 -89 3 -57 2 31 2 83 0 115 -2 31 -3 5 -3 -58z"/>
<path d="M592 285 c-1 -33 3 -78 7 -100 9 -40 9 -40 9 15 0 30 -3 75 -7 100
l-8 45 -1 -60z"/>
<path d="M685 215 c-4 -53 -5 -98 -2 -101 2 -3 8 38 12 91 4 53 5 99 2 101 -3
3 -8 -38 -12 -91z"/>
<path d="M1008 2455 c-2 -3 19 -29 48 -59 91 -97 159 -265 171 -423 3 -40 10
-73 16 -73 6 0 8 31 4 84 -7 98 -49 234 -97 317 -54 92 -126 170 -142 154z"/>
<path d="M1230 1693 c0 -27 32 -344 40 -400 5 -37 10 -96 10 -131 0 -40 4 -61
10 -57 13 8 12 98 0 190 -6 39 -14 122 -20 185 -16 183 -21 220 -31 220 -5 0
-9 -3 -9 -7z"/>
<path d="M36 1077 c-14 -30 1 -161 23 -212 17 -37 29 -50 68 -68 52 -23 164
-30 196 -11 13 8 -4 10 -70 10 -150 -1 -192 41 -203 203 -4 63 -9 90 -14 78z"/>
<path d="M433 608 c-10 -17 -6 -433 5 -478 5 -22 8 60 8 227 -1 145 -2 263 -3
263 -1 0 -5 -6 -10 -12z"/>
<path d="M1050 540 c-3 -19 0 -64 7 -100 9 -50 12 -56 11 -25 0 22 2 47 5 55
18 50 18 53 3 41 -12 -10 -15 -6 -18 26 l-3 38 -5 -35z"/>
</g>
</svg>
