<?xml version="1.0" standalone="no"?>
<!DOCTYPE svg PUBLIC "-//W3C//DTD SVG 20010904//EN"
 "http://www.w3.org/TR/2001/REC-SVG-20010904/DTD/svg10.dtd">
<svg version="1.0" xmlns="http://www.w3.org/2000/svg"
 width="78.000000pt" height="182.000000pt" viewBox="0 0 78.000000 182.000000"
 preserveAspectRatio="xMidYMid meet">

<g transform="translate(0.000000,182.000000) scale(0.100000,-0.100000)"
fill="#000000" stroke="none">
<path d="M288 1766 c-100 -36 -177 -106 -219 -201 -30 -68 -38 -188 -38 -570
-1 -558 13 -606 182 -622 l66 -6 3 -147 c3 -129 5 -151 22 -169 42 -46 140
-46 182 0 17 18 19 40 22 170 l3 149 27 6 c105 22 169 71 196 150 14 41 16
102 15 438 -1 215 -4 405 -8 421 -5 26 -11 31 -47 35 -31 4 -48 13 -69 38 -15
17 -34 32 -42 32 -8 0 -30 15 -49 34 -41 41 -45 87 -12 166 18 44 19 53 7 61
-47 30 -176 38 -241 15z m152 -32 c35 -8 36 -12 5 -94 -15 -38 -16 -52 -6 -87
15 -54 53 -100 91 -108 16 -3 40 -21 55 -41 23 -30 32 -34 70 -34 l44 0 6 -52
c4 -29 5 -213 3 -408 -3 -388 -3 -384 -65 -441 -46 -43 -82 -49 -289 -49 -191
0 -193 0 -223 25 -49 42 -52 81 -49 591 l3 459 27 56 c66 133 201 208 328 183z
m20 -1509 c0 -132 -2 -145 -19 -155 -11 -5 -32 -10 -46 -10 -14 0 -35 5 -46
10 -17 10 -19 23 -19 155 l0 145 65 0 65 0 0 -145z"/>
</g>
</svg>
