<?xml version="1.0" standalone="no"?>
<!DOCTYPE svg PUBLIC "-//W3C//DTD SVG 20010904//EN"
 "http://www.w3.org/TR/2001/REC-SVG-20010904/DTD/svg10.dtd">
<svg version="1.0" xmlns="http://www.w3.org/2000/svg"
 width="200.000000pt" height="200.000000pt" viewBox="0 0 200.000000 200.000000"
 preserveAspectRatio="xMidYMid meet">

<g transform="translate(0.000000,200.000000) scale(0.100000,-0.100000)"
fill="#000000" stroke="none">
<path d="M970 1804 c-13 -32 -12 -259 1 -292 7 -18 15 -23 36 -20 l28 3 0 165
0 165 -27 3 c-23 3 -30 -2 -38 -24z"/>
<path d="M830 1755 c-19 -23 24 -243 52 -267 27 -24 36 -23 49 6 8 17 6 49
-11 132 -12 60 -26 117 -31 127 -12 21 -42 22 -59 2z"/>
<path d="M1125 1750 c-10 -11 -16 -20 -13 -20 3 0 -4 -48 -17 -107 -15 -72
-20 -114 -14 -125 10 -19 54 -25 63 -9 4 5 15 52 26 104 10 53 22 106 25 120
4 16 1 30 -10 41 -22 21 -38 20 -60 -4z"/>
<path d="M1246 1676 c-17 -14 -76 -164 -76 -193 0 -16 8 -25 25 -29 27 -7 55
9 55 31 0 7 14 45 30 86 25 60 29 78 20 95 -13 23 -33 27 -54 10z"/>
<path d="M712 1663 c-8 -13 -1 -39 24 -102 18 -46 38 -89 45 -97 30 -37 82 7
60 50 -6 11 -24 53 -39 91 -24 59 -32 70 -55 73 -17 2 -29 -3 -35 -15z"/>
<path d="M1337 1603 c-86 -135 -89 -143 -83 -169 5 -20 12 -25 33 -22 21 2 38
22 90 106 66 107 71 120 51 140 -26 26 -48 12 -91 -55z"/>
<path d="M557 1644 c-17 -17 -3 -50 60 -144 57 -87 70 -100 94 -100 19 0 30 6
34 21 10 31 -123 223 -157 227 -13 2 -27 0 -31 -4z"/>
<path d="M412 1588 c-7 -7 -12 -19 -12 -28 0 -18 209 -230 227 -230 15 0 43
28 43 42 0 18 -212 228 -230 228 -9 0 -21 -5 -28 -12z"/>
<path d="M1447 1492 c-59 -59 -107 -115 -107 -125 0 -10 11 -23 25 -29 25 -11
31 -6 135 97 61 61 110 115 110 122 0 6 -7 19 -16 27 -8 9 -21 16 -27 16 -7 0
-61 -48 -120 -108z"/>
<path d="M893 1435 c-230 -62 -379 -285 -343 -512 21 -132 110 -267 218 -330
99 -58 249 -80 354 -53 224 60 377 292 340 516 -45 270 -312 448 -569 379z
m280 -103 c82 -41 157 -120 188 -200 30 -74 33 -205 6 -273 -83 -217 -328
-315 -530 -212 -222 112 -281 387 -125 586 103 130 307 174 461 99z"/>
<path d="M961 1332 c-17 -31 17 -62 67 -62 81 0 193 -82 228 -166 8 -18 17
-57 22 -85 8 -58 30 -82 59 -63 14 9 18 24 16 68 -6 159 -155 310 -319 324
-55 4 -63 2 -73 -16z"/>
<path d="M1032 1238 c-24 -24 -14 -57 22 -72 33 -14 71 -58 108 -125 21 -39
55 -42 64 -5 13 53 -56 158 -127 195 -45 22 -51 23 -67 7z"/>
<path d="M353 1433 c-20 -8 -13 -73 7 -73 5 0 52 -27 104 -61 82 -52 97 -59
116 -49 41 22 21 51 -85 122 -96 64 -115 72 -142 61z"/>
<path d="M1545 1369 c-54 -32 -101 -59 -106 -59 -11 0 -20 -35 -13 -53 12 -33
38 -27 132 29 116 69 136 88 123 113 -19 34 -38 30 -136 -30z"/>
<path d="M327 1283 c-12 -11 -8 -50 6 -60 6 -5 50 -24 96 -42 89 -36 113 -34
119 6 4 26 -9 36 -101 72 -77 31 -108 37 -120 24z"/>
<path d="M1575 1250 c-38 -16 -78 -33 -87 -39 -24 -15 -23 -47 3 -64 13 -9 16
-17 10 -22 -16 -9 -14 -40 3 -55 12 -9 37 -7 119 10 57 11 112 17 122 14 12
-5 16 -4 12 3 -4 6 0 13 8 17 20 7 19 40 -1 57 -13 11 -34 9 -122 -8 -59 -12
-108 -20 -110 -18 -1 1 32 15 74 31 83 31 106 53 88 82 -16 25 -41 24 -119 -8z"/>
<path d="M240 1155 c-16 -19 -3 -54 23 -60 12 -3 69 -14 127 -25 99 -19 105
-19 121 -2 12 12 15 23 9 38 -7 18 -26 25 -123 43 -135 25 -141 25 -157 6z"/>
<path d="M177 1024 c-11 -11 -8 -52 3 -59 16 -10 312 -7 322 3 5 5 8 20 6 33
-3 24 -3 24 -164 27 -88 1 -163 -1 -167 -4z"/>
<path d="M1504 1016 c-3 -8 -4 -23 -2 -33 3 -16 19 -19 151 -23 171 -6 190 -2
185 37 l-3 28 -163 3 c-135 2 -163 0 -168 -12z"/>
<path d="M1506 925 c-19 -20 -21 -39 -3 -53 14 -12 204 -52 243 -52 34 0 49
25 31 53 -12 18 -32 26 -113 40 -55 9 -108 20 -120 23 -13 3 -28 -1 -38 -11z"/>
<path d="M362 906 c-114 -25 -141 -41 -123 -75 15 -26 36 -27 152 -1 51 12 93
19 96 17 2 -2 -32 -17 -74 -32 -92 -33 -105 -42 -101 -68 6 -41 31 -42 124 -7
49 18 95 37 102 43 17 14 15 35 -7 54 -15 12 -17 21 -11 39 7 17 5 28 -6 39
-19 18 -23 18 -152 -9z"/>
<path d="M1478 829 c-25 -14 -22 -46 5 -63 47 -29 168 -68 192 -62 25 6 32 29
17 52 -6 10 -177 85 -191 84 -3 0 -14 -5 -23 -11z"/>
<path d="M450 701 c-52 -33 -101 -64 -107 -71 -19 -17 -15 -48 7 -60 17 -9 37
-1 130 56 89 54 110 72 110 90 0 19 -25 45 -42 44 -2 0 -46 -27 -98 -59z"/>
<path d="M1438 739 c-10 -6 -18 -21 -18 -34 0 -19 20 -36 103 -89 57 -36 111
-66 120 -66 21 0 40 36 30 55 -8 14 -85 66 -173 118 -34 19 -49 23 -62 16z"/>
<path d="M507 552 c-59 -59 -107 -114 -107 -123 0 -19 20 -39 40 -39 18 0 230
209 230 227 0 15 -28 43 -43 43 -7 0 -61 -48 -120 -108z"/>
<path d="M1356 644 c-9 -8 -16 -21 -16 -27 0 -19 213 -227 233 -227 10 0 23
11 29 25 11 25 6 31 -97 135 -61 61 -115 110 -122 110 -6 0 -19 -7 -27 -16z"/>
<path d="M1277 584 c-17 -17 -3 -50 60 -144 57 -87 70 -100 94 -100 19 0 30 6
34 21 10 30 -123 223 -157 227 -13 2 -27 0 -31 -4z"/>
<path d="M705 572 c-6 -4 -39 -54 -73 -111 -49 -83 -59 -107 -51 -122 5 -11
20 -19 34 -19 20 0 34 17 81 95 31 52 60 95 65 95 12 0 13 2 -21 -80 -33 -80
-36 -102 -17 -118 27 -23 58 10 94 101 19 48 32 94 29 102 -8 22 -36 30 -56
17 -15 -9 -19 -6 -24 19 -4 22 -11 29 -28 29 -13 0 -28 -4 -33 -8z"/>
<path d="M1182 528 c-7 -7 -12 -18 -12 -24 0 -20 63 -178 75 -186 21 -15 54
-8 60 13 6 19 -44 166 -68 197 -12 15 -39 16 -55 0z"/>
<path d="M873 498 c-6 -7 -20 -66 -33 -130 -18 -95 -20 -121 -10 -133 16 -19
34 -19 53 -1 8 8 24 67 37 130 18 94 20 119 10 131 -15 18 -44 20 -57 3z"/>
<path d="M1081 492 c-7 -13 -4 -45 10 -108 11 -49 20 -101 21 -115 2 -44 66
-64 81 -25 5 12 -34 219 -48 254 -7 19 -53 14 -64 -6z"/>
<path d="M971 481 c-13 -23 -5 -301 8 -314 5 -5 19 -7 32 -5 l24 3 0 165 0
165 -27 3 c-19 2 -30 -3 -37 -17z"/>
</g>
</svg>
