<?xml version="1.0" standalone="no"?>
<!DOCTYPE svg PUBLIC "-//W3C//DTD SVG 20010904//EN"
 "http://www.w3.org/TR/2001/REC-SVG-20010904/DTD/svg10.dtd">
<svg version="1.0" xmlns="http://www.w3.org/2000/svg"
 width="229.000000pt" height="146.000000pt" viewBox="0 0 229.000000 146.000000"
 preserveAspectRatio="xMidYMid meet">

<g transform="translate(0.000000,146.000000) scale(0.100000,-0.100000)"
fill="#000000" stroke="none">
<path d="M1192 1377 c-24 -25 -29 -47 -11 -47 12 0 31 20 50 53 15 26 -13 22
-39 -6z"/>
<path d="M1960 1387 c0 -8 9 -22 19 -31 26 -23 39 -2 15 25 -20 22 -34 25 -34
6z"/>
<path d="M81 1364 c-16 -37 -9 -39 11 -3 9 16 14 29 9 29 -4 0 -13 -12 -20
-26z"/>
<path d="M175 1371 c-7 -13 12 -51 25 -51 6 0 10 8 10 19 0 23 -25 46 -35 32z"/>
<path d="M1710 1375 c0 -14 31 -65 40 -65 19 0 19 19 -1 44 -19 24 -39 34 -39
21z"/>
<path d="M623 1318 c-20 -25 -23 -37 -14 -43 10 -6 51 32 51 47 0 13 -26 9
-37 -4z"/>
<path d="M1591 1304 c0 -11 3 -14 6 -6 3 7 2 16 -1 19 -3 4 -6 -2 -5 -13z"/>
<path d="M2105 1300 c3 -5 8 -10 11 -10 2 0 4 5 4 10 0 6 -5 10 -11 10 -5 0
-7 -4 -4 -10z"/>
<path d="M800 1285 c-7 -9 -11 -17 -9 -20 3 -2 10 5 17 15 14 24 10 26 -8 5z"/>
<path d="M1876 1262 l-19 -27 26 24 c28 26 32 31 20 31 -5 0 -17 -13 -27 -28z"/>
<path d="M324 1258 c-21 -31 -32 -58 -26 -58 9 0 44 61 38 67 -2 2 -8 -2 -12
-9z"/>
<path d="M2140 1260 c0 -5 5 -10 11 -10 5 0 7 5 4 10 -3 6 -8 10 -11 10 -2 0
-4 -4 -4 -10z"/>
<path d="M1851 1218 c-1 -10 -5 -18 -11 -18 -5 0 -10 -5 -10 -12 0 -8 6 -7 16
4 9 9 14 22 11 30 -4 9 -6 7 -6 -4z"/>
<path d="M1262 1204 c10 -10 20 -15 24 -12 3 4 -5 12 -18 18 -22 12 -22 12 -6
-6z"/>
<path d="M1677 1213 c-2 -4 -8 -23 -12 -40 -5 -25 -3 -33 8 -33 17 0 32 59 18
73 -5 5 -11 5 -14 0z"/>
<path d="M991 1184 c-7 -8 -11 -17 -9 -20 3 -2 13 5 23 16 10 11 14 20 9 20
-5 -1 -15 -8 -23 -16z"/>
<path d="M2212 1169 c-34 -33 -40 -49 -19 -49 22 0 72 59 61 70 -7 7 -21 0
-42 -21z"/>
<path d="M1425 1170 c-3 -5 1 -23 10 -40 27 -52 48 -31 23 25 -12 26 -23 32
-33 15z"/>
<path d="M145 1114 c36 -16 55 -17 55 -4 0 6 -6 11 -12 11 -7 1 -26 3 -43 4
l-30 3 30 -14z"/>
<path d="M1590 912 c0 -14 48 -54 60 -50 15 5 -27 58 -46 58 -8 0 -14 -4 -14
-8z"/>
<path d="M545 900 c-3 -6 1 -7 9 -4 18 7 21 14 7 14 -6 0 -13 -4 -16 -10z"/>
<path d="M950 890 c0 -15 22 -60 30 -60 16 0 18 15 4 41 -14 28 -34 39 -34 19z"/>
<path d="M280 815 c-7 -9 -10 -18 -7 -21 3 -3 10 4 17 15 13 25 8 27 -10 6z"/>
<path d="M1327 814 c-7 -13 14 -56 31 -62 6 -2 12 3 12 11 0 21 -35 62 -43 51z"/>
<path d="M410 801 c0 -14 41 -41 62 -41 26 0 22 13 -11 33 -32 19 -51 22 -51
8z"/>
<path d="M2046 683 c-6 -14 -5 -15 5 -6 7 7 10 15 7 18 -3 3 -9 -2 -12 -12z"/>
<path d="M1370 605 c-7 -8 -8 -15 -2 -15 5 0 15 7 22 15 7 8 8 15 2 15 -5 0
-15 -7 -22 -15z"/>
<path d="M1950 497 c0 -16 42 -57 58 -57 19 0 14 14 -16 43 -31 30 -42 33 -42
14z"/>
<path d="M230 491 c0 -5 7 -12 16 -15 14 -5 15 -4 4 9 -14 17 -20 19 -20 6z"/>
<path d="M1280 310 c0 -6 7 -10 15 -10 8 0 15 2 15 4 0 2 -7 6 -15 10 -8 3
-15 1 -15 -4z"/>
</g>
</svg>
