<svg version="1.0" xmlns="http://www.w3.org/2000/svg"
 width="150.000000pt" height="150.000000pt" viewBox="0 0 150.000000 150.000000"
 preserveAspectRatio="xMidYMid meet">
<g transform="translate(0.000000,150.000000) scale(0.050000,-0.050000)"
fill="#f53b02" stroke="none">
<path d="M815 2484 c-113 -6 -115 -7 -115 -65 0 -63 4 -61 -170 -69 -124 -7
-130 -9 -130 -56 0 -25 11 -57 24 -70 16 -16 26 -112 29 -279 3 -140 6 -262 6
-270 1 -23 101 -18 101 5 0 11 9 20 20 20 22 0 27 -66 7 -86 -7 -8 -25 -4 -40
9 -20 16 -27 15 -27 -6 -1 -21 -5 -21 -21 3 -15 22 -19 -4 -15 -93 3 -68 -1
-119 -9 -114 -19 12 -20 16 15 -113 39 -144 38 -153 -12 -108 -32 29 -39 53
-31 104 16 97 -2 124 -79 124 -67 0 -68 -1 -68 -87 0 -48 -6 -169 -13 -270
l-13 -183 74 0 73 0 -13 135 c-16 161 15 153 57 -15 39 -155 78 -154 135 4 69
189 80 183 80 -40 0 -150 7 -204 25 -204 68 1 73 27 59 320 -15 319 -6 307
-121 160 -51 -64 -69 -45 -40 42 33 99 58 122 120 113 30 -4 53 1 51 11 -2 11
7 23 21 28 14 5 25 0 25 -12 0 -13 41 -22 99 -22 86 0 98 -5 96 -40 -2 -22
-11 -40 -19 -40 -19 0 -22 -282 -4 -328 15 -40 75 -41 107 -3 28 33 23 574 -5
557 -8 -5 -10 16 -4 47 11 48 9 51 -10 22 -12 -20 -30 -31 -40 -25 -27 17
-148 27 -169 14 -10 -6 12 -21 49 -34 102 -34 99 -69 -4 -55 -89 11 -180 79
-189 140 -8 58 15 67 54 20 33 -38 37 -39 26 -7 -10 27 -7 34 10 24 12 -8 23
-4 23 8 0 12 9 17 19 11 36 -23 121 12 121 49 0 43 47 64 109 48 71 -17 80 18
80 307 l1 265 -95 0 -95 0 0 -70 c0 -69 2 -70 81 -70 125 0 110 -87 -16 -96
-136 -10 -133 -144 4 -144 101 0 111 -9 97 -85 -11 -54 -12 -55 -168 -55
l-158 0 0 167 c0 92 5 207 12 256 l12 89 117 22 c74 14 146 16 193 5 42 -10
92 -13 111 -7 29 9 35 -2 35 -66 1 -94 25 -136 70 -119 26 10 32 33 27 100 -7
85 -7 86 45 66 30 -11 68 -12 90 -3 69 31 209 24 206 -10 -11 -119 2 -163 47
-156 38 5 46 20 51 92 6 77 64 97 64 23 0 -56 43 -126 61 -98 11 18 19 20 19
5 0 -13 -13 -31 -29 -41 -25 -13 -23 -20 12 -42 41 -26 44 121 5 259 -22 78
-384 117 -424 46 -17 -30 -23 -30 -72 3 -54 35 -339 50 -657 33z m-39 -209 c6
-54 4 -55 -95 -55 -86 0 -101 -6 -101 -38 0 -73 23 -102 82 -102 51 0 58 -7
58 -60 0 -38 -10 -60 -28 -60 -15 0 -38 -13 -52 -30 -14 -17 -16 -30 -5 -30
11 0 25 -27 32 -60 12 -58 93 -92 93 -39 0 12 -11 15 -25 7 -14 -8 -18 -7 -10
2 8 9 6 27 -5 40 -15 19 -4 19 48 3 109 -34 60 -120 -61 -108 -51 5 -89 0 -95
-13 -5 -12 -11 32 -14 98 l-4 120 -14 -100 -14 -100 -3 105 c-2 58 5 105 15
105 9 0 3 39 -14 86 -40 113 -22 178 64 224 38 21 65 46 59 56 -6 9 10 14 36
11 34 -5 49 -22 53 -62z m-116 -853 c0 -18 -47 -42 -82 -42 -10 0 -18 14 -18
30 0 19 19 30 50 30 28 0 50 -8 50 -18z m-91 -291 c-9 -33 -21 -47 -33 -35
-10 10 -12 43 -5 73 9 33 21 47 33 35 10 -10 12 -43 5 -73z"/>
<path d="M2135 2446 c-98 -25 -124 -441 -33 -538 60 -64 256 -70 317 -9 82 82
81 458 -1 526 -41 34 -192 45 -283 21z m165 -81 c0 -9 -20 -24 -45 -35 -41
-18 -45 -34 -46 -170 -1 -175 12 -202 87 -182 56 15 94 283 50 350 -9 13 0 7
19 -14 52 -57 48 -252 -6 -321 -128 -163 -349 79 -237 260 58 94 178 169 178
112z"/>
<path d="M1554 2296 c-6 -47 -25 -94 -41 -106 -26 -19 -25 -25 8 -46 28 -18
39 -48 40 -109 4 -222 36 -144 38 90 1 249 -22 339 -45 171z"/>
<path d="M2012 2109 c-6 -18 -13 -61 -15 -96 -2 -59 -4 -58 -17 17 -8 44 -16
62 -18 40 -2 -22 -25 -103 -52 -180 l-48 -140 -6 180 c-6 177 -7 180 -56 180
-48 0 -50 -4 -50 -133 0 -73 -7 -140 -15 -149 -8 -8 0 -32 19 -52 29 -33 30
-44 8 -81 -23 -36 -22 -46 11 -70 34 -25 40 -20 71 49 19 42 35 61 35 43 1
-33 40 -57 93 -57 21 0 28 32 29 135 1 74 9 180 18 235 17 104 15 135 -7 79z"/>
<path d="M1320 2003 c0 -112 25 -176 46 -118 7 19 15 20 34 1 14 -13 19 -39
12 -59 -9 -23 -19 -28 -28 -14 -14 23 -191 7 -217 -20 -8 -7 -3 -37 11 -66 19
-43 19 -57 -2 -70 -21 -14 -20 -21 4 -39 23 -16 24 -24 5 -31 -36 -15 -31 -48
5 -34 44 17 53 -592 9 -644 -39 -48 2 -114 46 -75 40 35 41 35 31 -19 -10 -50
-6 -53 42 -42 52 13 52 13 14 -30 -21 -24 -30 -43 -20 -44 25 0 -55 -46 -92
-53 -45 -7 -102 14 -90 35 6 9 26 12 44 5 22 -9 28 -5 18 11 -8 12 -26 23 -41
23 -37 0 -53 50 -25 78 16 16 16 22 -2 22 -13 0 -24 -10 -24 -22 0 -13 -18
-18 -43 -11 -32 8 -37 5 -20 -12 35 -35 27 -55 -22 -56 -43 0 -44 -1 -7 -29
31 -24 34 -34 13 -59 -22 -26 -19 -31 18 -31 35 0 41 -8 31 -40 -14 -43 18
-55 42 -17 10 16 23 11 42 -15 22 -31 31 -33 45 -10 9 15 27 21 39 13 12 -7
22 -4 22 8 0 11 14 21 31 21 22 0 28 12 20 38 -16 49 83 102 192 102 48 0 77
9 77 25 1 19 4 19 17 -1 17 -26 643 -39 684 -13 36 22 19 49 -31 49 -31 0 -50
11 -50 30 0 36 43 39 75 7 16 -16 31 -17 49 -2 14 11 52 20 83 20 32 0 48 -6
38 -12 -23 -15 4 -103 32 -103 10 0 24 25 30 55 18 81 65 130 127 135 31 2 67
5 81 7 31 4 33 107 4 203 -69 233 -57 359 34 360 45 0 76 49 55 84 -21 34
-518 8 -516 -27 2 -22 -29 -27 -140 -23 -100 3 -127 0 -92 -13 50 -17 50 -17
4 -19 -26 -1 -66 -11 -90 -23 -43 -20 -43 -20 -5 10 21 17 29 31 17 31 -38 0
-65 -51 -52 -99 10 -39 16 -42 34 -17 36 48 108 78 187 76 41 -1 121 5 177 12
135 17 197 -14 179 -89 -28 -115 -34 -207 -12 -194 12 8 27 0 33 -18 7 -17 20
-26 29 -21 9 6 22 2 29 -10 7 -12 -18 -21 -64 -23 l-76 -3 68 -9 c88 -10 118
-42 100 -105 -9 -32 -15 -37 -16 -15 -4 66 -114 45 -140 -26 -16 -48 -31 -60
-66 -55 -58 8 -56 139 5 384 21 87 39 161 39 165 0 4 -30 7 -67 7 l-67 0 9
-100 10 -100 -71 0 c-66 0 -72 5 -78 65 -9 101 -89 104 -107 4 -17 -88 0 -306
26 -332 32 -32 86 5 99 67 20 100 117 73 113 -33 -5 -150 -224 -216 -338 -102
-50 50 -52 64 -53 351 0 57 -4 70 -9 35 -5 -30 -17 -55 -26 -55 -8 0 -17 -79
-19 -175 -5 -190 -13 -212 -85 -202 -47 7 -47 9 -53 292 -3 167 -13 285 -25
285 -10 0 -19 -31 -19 -70 0 -38 -10 -70 -21 -70 -12 0 -15 11 -7 23 10 16 3
20 -20 10 -64 -24 -129 7 -136 64 -7 62 -81 76 -92 17 -10 -51 27 -88 105
-102 278 -53 231 -364 -54 -360 -197 3 -307 191 -120 204 75 6 85 1 85 -35 0
-46 43 -72 89 -54 66 25 4 120 -107 163 -148 57 -200 201 -106 295 38 38 60
40 389 37 l175 -2 0 -62 c0 -70 46 -72 56 -1 4 23 16 43 27 43 10 0 13 -11 5
-23 -10 -17 -3 -19 24 -8 21 9 88 21 148 28 61 7 108 22 107 33 -5 27 -47 38
-47 12 0 -33 -132 -26 -160 8 -27 33 -133 41 -143 11 -4 -10 -61 -19 -127 -21
-154 -4 -170 -1 -115 20 37 15 42 29 32 79 -7 34 -2 73 9 87 17 19 12 26 -17
29 -21 1 -39 -6 -39 -17 0 -11 -10 -14 -23 -6 -15 9 -19 -9 -14 -58 l9 -72
-91 -6 c-60 -4 -89 -15 -86 -31 3 -14 -17 -26 -45 -28 -125 -9 -120 -12 -123
86 -3 97 8 105 87 61 100 -55 133 59 90 306 -26 146 -104 126 -104 -27z m240
-1191 c0 -45 -28 -71 -52 -50 -21 17 -28 17 -28 -3 0 -14 -6 -20 -13 -13 -7 8
-25 4 -40 -9 -21 -17 -27 -11 -27 31 0 47 7 52 80 52 44 0 80 -4 80 -8z m140
-8 c0 -9 -13 -34 -29 -55 -28 -37 -30 -37 -30 16 -1 36 9 55 29 55 17 0 30 -7
30 -16z m120 8 c0 -5 5 -21 10 -36 7 -18 -3 -27 -30 -27 -25 0 -40 13 -40 35
0 20 14 36 30 36 17 0 30 -4 30 -8z m140 -10 c0 -24 -43 -39 -75 -27 -43 16
-27 45 25 45 28 0 50 -8 50 -18z m120 0 c0 -18 -47 -42 -82 -42 -10 0 -18 14
-18 30 0 19 19 30 50 30 28 0 50 -8 50 -18z m76 -24 c3 -18 -12 -28 -43 -28
-40 0 -44 5 -25 35 24 40 59 36 68 -7z"/>
<path d="M1509 1859 c-36 -60 -28 -175 12 -165 31 9 39 28 39 98 0 84 -22 113
-51 67z"/>
<path d="M2100 1797 c0 -24 112 -120 134 -116 9 2 14 12 11 22 -4 11 3 15 13
8 18 -11 82 61 82 93 0 8 -54 14 -120 13 -66 -1 -120 -10 -120 -20z"/>
<path d="M1705 1519 c-53 -21 -61 -47 -10 -35 40 10 92 -38 102 -95 19 -105
42 -91 42 26 1 136 -19 151 -134 104z"/>
<path d="M829 1294 c-19 -77 9 -388 38 -411 30 -26 293 -42 293 -19 0 10 -9
13 -20 6 -11 -7 -20 -4 -20 6 0 10 -36 32 -80 50 -94 36 -140 122 -140 260 0
115 -50 191 -71 108z"/>
<path d="M2324 750 c-17 -37 -15 -49 9 -58 41 -16 67 2 67 47 0 57 -52 64 -76
11z"/>
</g>
</svg>
