<svg xmlns="http://www.w3.org/2000/svg" width="1280" height="1280"><path d="M660.926 376.059c3.5 3.81 3.82 8.026 4.074 12.941h2l.805 2.555 1.07 3.32 1.055 3.305c.882 2.905.882 2.905 3.07 4.82a72.526 72.526 0 0 1 1.875 4.438l1.055 2.707a496.435 496.435 0 0 1 3.07 8.48c1.413 3.942 3.061 7.582 5 11.285 1.606 3.356 2.765 6.863 4.004 10.367 1.816 4.965 4.07 9.722 6.289 14.516 2.153 4.679 4.235 9.257 5.707 14.207 2.716-.905 4.137-1.704 6.375-3.375 3.652-2.67 7.442-4.953 11.375-7.188 2.365-1.24 2.365-1.24 3.25-3.437h3l.625-1.813c1.895-3.014 4.184-3.685 7.375-5.187a349.422 349.422 0 0 0 5-4l1.93-.895c3.055-1.631 4.995-4.09 7.289-6.644C748 435 748 435 752 435l.625-1.625c2.99-5.164 6.754-8.4 12.375-10.375l1.5-1.563c2.025-1.94 3.763-1.928 6.5-2.437 4.269-1.646 4.269-1.646 7-5 5.38-1.172 10.318-1.956 15.188.813 3.305 3.989 2.958 7.397 2.945 12.378l.003 2.483c0 1.74-.001 3.479-.006 5.218-.005 2.636 0 5.271.007 7.907 0 1.693-.002 3.387-.004 5.08l.006 2.359c-.057 13.598-.057 13.598-2.139 17.762a63.543 63.543 0 0 0-.19 4.123l-.05 2.581-.041 2.8-.056 2.886c-.059 3.058-.112 6.115-.163 9.173-.052 3.032-.105 6.064-.163 9.097a1326.6 1326.6 0 0 0-.097 5.663c-.107 5.62-.54 11.1-1.24 16.677 2.146-.14 4.292-.287 6.438-.438 1.194-.08 2.39-.162 3.62-.246 2.828.007 2.828.007 3.942-1.316 2.038-.186 4.081-.323 6.125-.438 4.964-.337 9.163-1.058 13.875-2.562h4v-2h13v-2l2.117-.402 2.758-.536 2.742-.527C855 510.1 855 510.1 857 509c2.591-.31 5.184-.51 7.785-.719 2.186-.048 2.186-.048 3.215-1.281 2.58-.282 5.16-.448 7.75-.621L878 506l1-2v2l2.598-.105c8.18-.194 12.894.33 19.84 4.605 2.624 4.2 2.165 8.695 1.562 13.5-1.5 3.688-1.5 3.688-3 6h-2l-.234 1.984c-1.047 4.123-2.983 7.55-5.016 11.266l-1.23 2.285a866.14 866.14 0 0 1-7.645 13.899A88.039 88.039 0 0 0 882 563h-2l-.309 2.164c-.781 3.206-2.027 5.402-3.754 8.211a313.947 313.947 0 0 0-8.25 14.625l-1.021 1.923c-1.592 3.008-3.162 6.024-4.666 9.077h-2l-.438 2.25c-.464 2.27-.98 4.508-1.562 6.75l4 1v2l1.734-.586c2.707-.495 3.976-.035 6.516.961 2.994 1.085 5.706 1.86 8.875 2.188 3.859.435 7.16 1.322 10.875 2.437 2.06.554 4.122 1.094 6.188 1.625 1.004.26 2.008.52 3.042.79 2.95.723 2.95.723 6.77.585v2l1.766.113c5.931.476 11.436 1.6 17.183 3.121 4.64 1.165 9.334 1.977 14.051 2.766v2l1.828.043c6.56.391 6.56.391 9.672 3.27 1.5 2.687 1.5 2.687 2 4.75.347 2.154.347 2.154 2.563 3.562 2.675 3.28 2.573 5.776 2.367 9.918-.682 3.9-2.416 6.087-5.43 8.457-2.673 1.813-5.389 3.522-8.148 5.2-3.508 2.215-6.695 4.726-9.934 7.312-2.2 1.707-4.52 3.074-6.918 4.488a358.302 358.302 0 0 0-6.23 4.793C919 682 919 682 917 682v2l-2.938.813L911 686l-1 3-2 1 1.938 1.375C912 693 912 693 913 695l2.188.848c3.41 1.397 5.905 3.331 8.812 5.59 6.627 5.19 6.627 5.19 14.25 8.562l2.75 1 1 3c1.988 1.57 1.988 1.57 4.375 3 5.948 3.72 5.948 3.72 7.625 6 .434 2.777.434 2.777.438 5.938l.058 3.152c-.608 3.568-1.63 4.76-4.496 6.91h-3v2c-3.674 1.176-7.17 1.074-11 1v2l-8 1v2h-3l2.813 1.25c3.138 1.723 4.198 2.91 6.187 5.75l3 1v2l1.875.938L943 760v2l1.75.75c2.698 1.499 4.337 2.81 6.25 5.25 1.098 4.56 1.306 8.478 0 13-3.057 4.402-7.014 5.042-12 6l-3.54.75c-5.51 1.149-10.973 2.286-16.585 2.813-3.717.246-3.717.246-6.375 1.437-3.158 1.263-6.139 1.476-9.512 1.754-2.06.142-2.06.142-3.988 1.246-1.413.178-2.83.32-4.25.438-3.847.39-7.088 1.292-10.75 2.562-3.32.736-6.656 1.379-10 2l1.5 2.25C877 805 877 805 877 809l3 1c2 3 2 3 2 7h2l1 5 3 1c.354 1.328.685 2.662 1 4l1.375 1.375c2.27 2.27 3.367 4.689 4.625 7.625v4l3 1v4h2l1 3 2 2a126.235 126.235 0 0 1 2 6l-1 1 1 3h-2l-.375 2.375C902 865 902 865 900 867c-1.968.259-1.968.259-4.36.266l-2.632.007-2.758-.023-2.71.023c-4.912-.014-8.935-.352-13.54-2.273l.84 1.574c1.977 3.806 3.58 7.132 4.16 11.426l.563 2.813L880 883h2l.84 2.59 1.097 3.347 1.09 3.34c.712 2.604.712 2.604 1.973 3.723.497 3.479.005 4.99-1.688 8.125-2.35 2.921-3.85 4.474-7.312 5.875-2.75-.188-2.75-.188-6-1-1.375-.293-2.75-.585-4.125-.875-4.663-1.052-9.293-2.224-13.926-3.398a263.374 263.374 0 0 0-8.136-1.852C842 902 842 902 841 901c-3.3-.66-6.605-1.243-9.922-1.807-3.953-.7-7.346-1.686-11.078-3.193-3.064-.797-6.154-1.462-9.25-2.125-.828-.182-1.655-.364-2.508-.55-3.59-.923-3.59-.923-7.242-1.325-.05 4.517-.086 9.033-.11 13.55-.01 1.532-.023 3.064-.04 4.596-.086 7.69-.113 15.058 1.678 22.587.863 4.146.88 8.296.91 12.517.032.859.065 1.717.1 2.602.035 4.25-.137 7.252-2.784 10.691-3.436 3.065-5.187 3.424-9.617 3.629-3.066-.247-4.732-1.287-7.137-3.172l-3.188-1.938c-2.675-1.962-3.72-3.002-4.812-6.062v3a935.955 935.955 0 0 1-.745 12.287c-.086 1.345-.17 2.69-.25 4.035a977.987 977.987 0 0 1-.372 5.854l-.222 3.528c-.528 4.238-1.16 7.995-4.177 11.132-4.508 2.349-9.331 2.065-14.234 1.164-3.212-1.88-5.728-4.047-8-7v-2l-6-2v-2l-3-1v-2l-1.652-.719c-2.951-1.61-5.335-3.623-7.91-5.781C726.67 967.188 724 965 721 963v-2l-3-1v-2l-2.133-.668c-3.523-1.637-5.99-3.974-8.742-6.644-4.174-3.949-8.314-7.517-13.125-10.688l-1 1-2 2a256.638 256.638 0 0 0-2 7c-1.976 5.27-4.302 10.41-6.563 15.563-1.303 3.116-2.39 6.227-3.437 9.437a305.65 305.65 0 0 1-2 5h-2l.188 2.563c-.228 4.173-1.39 6.691-3.188 10.437h-2l-.25 2.25c-.954 3.498-1.73 4.712-4.75 6.75-4.21.708-7.822.445-11.813-1.063-2.95-2.612-4.285-5.488-6.187-8.937-1.23 2.145-2.459 4.291-3.688 6.438l-1.106 1.928a449.002 449.002 0 0 0-7.1 12.864c-1.257 2.011-2.188 3.351-4.106 4.77-4.948.912-10.594 1.433-15.047-1.219-3.415-3.732-5.117-8.214-6.824-12.914-1.332-3.383-2.961-6.579-4.629-9.804-2.536-4.947-4.607-9.891-6.406-15.149-1.598-4.257-3.566-8.32-5.521-12.422-2.074-4.37-3.928-8.775-5.67-13.285-1.179-2.882-2.593-5.614-4.02-8.379-1.222-2.53-2.077-5.14-2.883-7.828-6.617 2.16-9.673 5.692-14 11a74.332 74.332 0 0 1-5 5h-2l-1 3h-2v2c-1.426 1.148-1.426 1.148-3.313 2.375-2.874 1.959-4.627 3.816-6.687 6.625l-2.258 1.266c-3.254 2.058-5.416 4.504-7.992 7.359-3.176 3.33-5.837 6.078-10.563 6.75-3.998-.057-6.901-1.028-10.187-3.375-2.607-3.389-3-4.627-3-9h-3l-2 4h-2v2l-5.176 2.93c-1.644.964-3.238 2.013-4.824 3.07-5.79.726-11.158 1.098-16.25-1.938-3.156-5.522-2.958-10.755-2.275-16.956.66-6.89.734-13.762.806-20.68l.056-4.133c.07-5.06.13-10.12.19-15.18.05-4.299.105-8.597.165-12.895.026-1.996.047-3.992.068-5.988.084-6.16.297-12.14 1.24-18.23-6.316.369-11.212 1.27-17 4-2.327.69-4.66 1.355-7 2-1.48.54-2.959 1.082-4.438 1.625-4.357 1.49-7.98 1.625-12.562 1.375v2l-3.395 1.059-4.418 1.379-2.236.697A491.34 491.34 0 0 0 419 903c-2.333.04-4.667.044-7 0v2c-4.214-.639-8.596-1.322-12-4-1.77-3.208-2.943-6.5-4-10-3.47.458-6.674.891-10 2-5.309.342-8.692.5-13-3v-2h-2c-.196-1.75-.381-3.5-.563-5.25l-.316-2.953c-.11-2.56.102-4.378.879-6.797h2l.25-1.938c1.038-4.237 2.653-8.232 4.75-12.062l2-1a195.971 195.971 0 0 0 3-7c1.2-2.543 2.427-4.64 4-7l1-3c1-3 1-3 3-6a400.725 400.725 0 0 0 3-6h2l.375-2.188c.615-2.77 1.51-5.209 2.625-7.812h2l.25-2.125c.924-3.542 2.722-5.833 4.75-8.875 1.562-3.588 2.763-7.29 4-11-1.94-1.94-5.473-1.4-8.063-1.563l-3.91-.253L395 795v-2l-2.852.07-3.773.055-3.727.07c-3.633-.194-6.235-1.012-9.648-2.195-2.264-.253-4.537-.44-6.813-.563C362.1 790.1 362.1 790.1 361 789a65.487 65.487 0 0 0-4.035-.535l-2.451-.264-2.577-.264-2.587-.275c-2.117-.225-4.233-.444-6.35-.662v-2l-3.75.25c-2.923-.026-4.024-.11-6.563-1.688-2.375-3.607-3.52-7.426-4.687-11.562h2l-1-5-1.793-.55c-2.42-.77-4.813-1.602-7.207-2.45l-2.938-1c-3.047-2.955-3.45-6-4.058-10.125-.006-4.528 1.577-7.105 3.996-10.875h3v-2l2.375-.25L325 739l.914-1.875c1.328-2.599 2.608-3.37 5.086-4.875 6.128-3.9 12.048-8.245 17.148-13.438C350 717 350 717 352.312 716.125c3.299-1.38 5.435-3.375 8.04-5.785C362 709 362 709 365 708l1.438-1.438C368 705 368 705 369.875 704.125c2.347-1.103 2.347-1.103 4.5-3.563 2.725-2.66 5.234-3.904 8.625-5.562l2-3h2l1-3 2-1-2.992-.078-3.883-.172-3.867-.14L376 687c-1.277-2.031-1.277-2.031-2-4l-2.688-.25c-4.43-1.003-5.615-3.18-8.382-6.625-2.624-2.889-5.637-4.703-8.93-6.75-2.54-1.746-4.11-3.962-6-6.375l-2.813-1.375c-3.627-1.85-5.758-4.077-8.527-7.004-1.678-1.784-1.678-1.784-4.285-3.058-3.655-2.405-5.591-5.61-7.375-9.563-.625-3.688-.625-3.688 0-7 2.375-2.938 2.375-2.938 5-5h2v-2l-1.688-.688c-2.959-1.68-4.973-3.853-7.312-6.312l-1.598-1.355c-2.733-3.206-2.525-7.585-2.402-11.645 1.332-3.108 1.99-4.495 5-6v-1l1.977-.148c5.01-.43 9.251-1.227 14.023-2.852 2.991-.445 5.987-.746 9-1v-1l2.887-.148 3.8-.227 3.762-.21c3.29-.385 5.536-1.145 8.551-2.415 2.676-.414 2.676-.414 5.313-.625l2.675-.227L378 592v-1l2.633-.148 3.492-.227 3.445-.21c3.4-.411 6.2-1.316 9.43-2.415 1.95-.27 3.91-.481 5.875-.625l2.93-.227L408 587v-1h8a178.056 178.056 0 0 0-6.813-16.25l-1.057-2.23c-3.468-7.286-7.016-14.535-10.798-21.665C396 543 396 543 396 540h-2l-.277-1.59c-.979-3.263-2.638-5.993-4.286-8.972-3.201-6.126-4.96-11.533-3.437-18.438 1.801-3.002 2.903-4.452 6-6l-.84-2.125C387 491.979 387 491.979 387 486c1.813-3.5 1.813-3.5 4-6h2l1-2c5.54-.254 10.022.6 15.313 2.188l4.804 1.39 2.46.72c2.305.668 4.615 1.308 6.93 1.936a486.039 486.039 0 0 1 23.368 6.954c6.975 2.266 13.817 3.966 21.125 4.812v2l3.625.375c3.678.462 6.87 1.388 10.375 2.625 1.897.535 3.797 1.057 5.7 1.57l3.006.813L493 504l-.013-2.769c-.04-8.622-.071-17.243-.09-25.865-.011-4.433-.025-8.865-.048-13.297-.022-4.28-.034-8.559-.039-12.838-.003-1.63-.01-3.262-.021-4.892-.015-2.288-.017-4.576-.016-6.865l-.014-3.943c.324-4.752 1.154-8.24 4.241-11.906 2-1.625 2-1.625 4-1.625l-.105-1.871c-.198-6.195.448-11.473 3.105-17.129 2.45-2.45 3.6-2.547 7-3l3.313-.5c4.698.637 6.431 2.485 9.773 5.691 2.427 2.293 5.113 4.004 7.914 5.809a210.028 210.028 0 0 1 5 4l3 2.375c2.198 1.923 3.795 3.511 5.563 5.75 2.366 2.791 4.28 4.13 7.437 5.875 1.813 1.563 1.813 1.563 3 3v2l1.75.813c2.306 1.216 4.27 2.49 6.25 4.187v2l1.938.875C568 441 568 441 569 443l2.188 1.313c4.744 2.846 8.368 5.624 10.812 10.687 1.324.685 2.66 1.349 4 2l2.5 2.625c2.409 2.834 2.409 2.834 6.5 2.375l.375-1.938L596 458l2-1c.834-2.083.834-2.083 1.5-4.5.719-2.469.719-2.469 1.5-4.5l2-1c.83-1.852.83-1.852 1.5-4 .719-2.188.719-2.188 1.5-4l2-1c.658-3.03.658-3.03 1-6h3l.438-2.188L613 427l.375-2.625c.704-2.674 1.626-3.55 3.625-5.375v-2h2l.375-2.188c.615-2.77 1.51-5.209 2.625-7.812h2l.313-2.125c1.416-5.926 4.288-11.03 9.125-14.75 2.886-2.393 4.56-4.979 6.562-8.125h1l1-6c5.637-1.668 13.616-2.86 18.926.059zM643 377l1 2 1-2h-2zm-2 52-.918 1.871A358.22 358.22 0 0 1 631 448a8727.71 8727.71 0 0 0-2.375 4.313c-3.118 5.614-6.364 11.154-9.625 16.687l-1.586 2.797C616 474 616 474 614 475a449.4 449.4 0 0 0-1 6l-2 3-2-1c-.826 2.892-1 4.887-1 8a201.065 201.065 0 0 1-3 6v2h-2l-1.125 3.25c-1.773 4.057-3.769 5.89-7.875 7.75-3.002.173-5.007-.252-8-1l-2-3-2.813-1.375c-3.444-1.756-5.511-3.875-8.187-6.625h-2v-2l-2.563-1.125c-3.995-2.18-7.058-4.866-10.437-7.875-2.687-2.407-2.687-2.407-6-3l-.688-1.813c-1.69-2.816-3.47-3.519-6.312-5.187a153.344 153.344 0 0 1-3.625-3.188C535.65 468.688 529.388 464.26 523 460c-2.25 3.375-2.197 4.273-2.063 8.188.09 5.172-.057 10.277-.375 15.437l-.119 2.118c-.32 5.01-.32 5.01-1.443 7.257-.131 2.203-.203 4.41-.246 6.617l-.1 4.028c-.047 2.115-.092 4.23-.13 6.346-.04 2.042-.092 4.084-.145 6.126l-.076 3.707c-.29 3.039-.866 4.564-2.303 7.176a141.676 141.676 0 0 0-.5 8.375c-.155 5.26-.543 9.654-2.5 14.625h-4v2c-6.495-.417-12.553-1.518-18.844-3.172-9.987-2.644-9.987-2.644-20.156-4.39-3-.438-3-.438-5.438-1.5-3.619-1.325-6.72-1.068-10.562-.938v-3l-3 1-2-1a62.266 62.266 0 0 0-4.125-.063L441 539v-2l-11-1c4.06 10.212 8.17 20.398 12.5 30.5 2.207 5.15 4.362 10.321 6.5 15.5l1.14 2.457c1.063 3.143 1.09 5.793 1.048 9.106l-.02 3.378C451 600 451 600 450.43 602.231c-.644 2.652.438 4.372 1.57 6.769h2c.775 10.802.775 10.802-2.063 15.188-3.395 2.095-5.99 2.508-9.937 2.812l-1 1a388.41 388.41 0 0 1-10.566 1.807c-4.076.679-7.618 1.554-11.434 3.193-1.553.376-3.117.71-4.688 1l-2.601.496L409 635c-1.855.35-3.71.704-5.563 1.063l-2.503.472c-1.929.286-1.929.286-2.934 1.465-1.392.158-2.79.277-4.188.375-4.152.405-7.183 1.485-10.812 3.625 2.357 4.713 5.72 8 10 11h2v2h2v2c3.48 3.636 3.48 3.636 8 5l1 3c2.635 2.41 2.635 2.41 6 3l.254 1.805c.965 2.839 2.24 3.632 4.683 5.32 5.025 3.52 6.724 5.695 8.063 11.875-.313 3.255-.967 5.902-2 9l-1.688.375c-3.477.94-5.602 3.31-8.312 5.625l-2.063 1c-2.148.98-2.148.98-4.125 3.25-3.096 3.028-6.35 5.149-10.019 7.418L395 715v2l-1.625.75c-4.265 2.245-8.037 4.773-11.375 8.25 1.917.027 3.833.046 5.75.063l3.234.035c2.593-.084 4.536-.468 7.016-1.098 1.916-.067 3.833-.085 5.75-.063l2.984.028L409 725v2h-3c-1.5 1.359-1.5 1.359-2.938 3.25-7.444 8.861-15.643 16.995-25.062 23.75 2.58 3.237 5.085 3.704 9.063 4.5 3.94.802 7.775 1.724 11.617 2.902 5.745 1.759 11.55 3.22 17.382 4.66l3.104.776c5.3 1.317 10.59 2.57 15.955 3.59 3.99 1.215 6.657 4.197 9.379 7.26 2.227 1.948 4.69 2.469 7.5 3.312 4.745 1.618 4.745 1.618 7 5 .266 2.523.266 2.523.25 5.375l.016 2.836c-.284 2.975-1.025 5.083-2.266 7.789l-.93 2.035-.945 2.028c-2.135 4.724-3.682 9.577-5.195 14.53C449 823 449 823 447 824a89.378 89.378 0 0 0-1.5 6 89.378 89.378 0 0 1-1.5 6l-2 1a77.766 77.766 0 0 0-1.375 5.563c-1.245 5.355-3.035 9.613-5.625 14.437v2h5v-1l2.45-.148 3.238-.227c1.055-.07 2.111-.14 3.199-.21 3.047-.406 5.289-1.256 8.113-2.415 2.676-.414 2.676-.414 5.313-.625l2.675-.227L467 854v-1l2.484-.148 3.266-.227c1.067-.07 2.135-.14 3.234-.21 2.942-.24 2.942-.24 5.07-1.442 5.128-2.564 13.568-1.388 18.946.027l1 2 8-1v-2c1.584.088 3.168.196 4.75.313l2.672.175c2.94.584 4.394 1.487 6.578 3.512.75 2.188.75 2.188 1 4h2l.076 2.216c.116 3.324.239 6.648.361 9.971l.12 3.487.127 3.369.11 3.094c.142 2.816.142 2.816.706 5.35.58 2.92.714 5.714.816 8.689l.127 3.506.12 3.63.13 3.69c.106 3 .208 5.999.307 8.998h2v9l3 1v-2l6-2v-2l1.688-.75c2.44-1.23 2.44-1.23 4.812-3.25 2.137-1.71 4.017-2.897 6.5-4v-2l2.188-.25c4.253-1.134 6.794-3.7 9.812-6.813 3.362-3.256 5.65-4.946 10.453-4.914l3.797.352c5.696.163 5.696.163 10.66-2.332 2.185-2.256 4.142-4.583 6.09-7.043 2.569-1.284 4.766-1.33 7.625-1.563l3.04-.253L609 885v2a687.806 687.806 0 0 0 4.61 3.703c1.76 1.642 2 2.96 2.39 5.297l1.563 1.563L619 899v3l1.938.688C623 904 623 904 623.75 906.625L624 909h2l.25 2.188c.572 2.915.572 2.915 2.625 5.125 1.931 2.442 2.66 3.89 3.625 6.75 1.22 3.54 2.7 5.399 5.5 7.937 1.646 2.438 2.876 4.278 3.375 7.188.493 2.121.493 2.121 3.188 3.062L647 942l.375-2.375C648 937 648 937 650 935a67.725 67.725 0 0 0 1.875-3.625l1.047-2.137c.723-1.5 1.441-3.003 2.156-4.508l1.047-2.168.945-1.996C658 919 658 919 660 918l.938-3.313c.996-3.457 1.825-5.003 4.062-7.687l1.5-2.563c1.422-2.31 2.37-3.788 4.5-5.437 3.077-.444 6.081-.502 9.188-.594 2.789-.18 2.789-.18 4.585-1.687 1.334-1.869 2.105-3.55 2.852-5.719l.727-2.063c.55-1.645 1.1-3.29 1.648-4.937l-1-2c4.72-2.643 9.07-4.31 14.5-3.438 3.445 1.415 5.996 3.025 8.926 5.27 1.637 1.286 1.637 1.286 3.949 2.356C718 887 718 887 719 889a398.489 398.489 0 0 0 6 3l6 4 3 1a81.233 81.233 0 0 1 3 3c4.713 3.935 9.249 6.843 15 9 2.4-3.723 2.137-6.839 2-11.188-.138-7.786.279-15.486.875-23.25l.238-3.358.254-3.138.222-2.814C756 863 756 863 758 861c5.045-2.215 9.605-2.216 15-2 .787-3.403 1.081-6.38.879-9.863l-.147-2.686-.17-2.764-.158-2.822c-.129-2.289-.264-4.577-.404-6.865l1.882-.929c2.107-1.032 2.107-1.032 4.005-2.212 2.831-1.151 4.89-.9 7.926-.609l3.44.328C808.65 832.65 808.65 832.65 810 834c1.352.226 2.714.394 4.078.535l2.52.264 2.652.264 2.605.275c4.063.416 8.055.789 12.145.662-.652-3.7-1.65-7.098-2.938-10.625l-1.027-2.852c-1.01-2.7-1.01-2.7-3.035-5.523-1.327-2.847-2.464-5.77-3.625-8.688l-.984-2.357c-2.08-5.238-2.893-9.316-2.391-14.955 2.116-3.477 4.12-5.707 8-7 2.667-.441 5.307-.73 8-1-.424-5.406-1.47-7.95-5-12-3.064-4.815-4.155-9.389-3-15 2.5-3.063 2.5-3.063 5-5l2 1v-2l8-1v-2l2.375.25c4.156-.287 7.037-1.545 10.832-3.164 6.355-2.47 13.115-3.784 19.793-5.086l1-4h-2v-2a88.882 88.882 0 0 0-4.75-3.875c-3.312-2.547-6.333-5.134-9.25-8.125-3.091-3.006-3.091-3.006-7-4l-1-3c-2.097-1.023-2.097-1.023-4.563-1.688L844 711l1-10h5c2.317-1.395 2.317-1.395 4.438-3.313 3.388-2.798 6.585-4.789 10.562-6.687 3.932-2.498 3.932-2.498 5.563-6.625L871 682l1.71-.832c3.066-1.564 4.983-3.746 7.352-6.23 4.606-4.827 4.606-4.827 7.938-5.938 2.63-2.491 5.093-5.1 7.563-7.75C898 659 898 659 899.944 658.535c2.46-.64 3.563-1.579 5.367-3.347l1.614-1.52c1.31-1.642 1.31-1.642.804-3.805-.58-1.847-.58-1.847-1.73-2.863-1.514-.325-3.037-.61-4.563-.875-3.3-.627-6.324-1.365-9.437-2.625-2.962-1.192-5.797-1.92-8.938-2.5-6.158-1.141-11.857-3.072-17.625-5.5-6.492-2.51-13.605-3.331-20.437-4.5v-2c-4.117-2.745-8.016-2.723-12.871-3.242-3.704-.897-5.018-1.584-7.129-4.758-.291-2.737-.383-5.04-.25-7.75l.055-2.113c.047-1.713.118-3.425.195-5.137h2l1.375-3.313c1.041-2.508 2.09-4.384 3.625-6.687.167-2.625.167-2.625 0-5h2c1.422-3.317 2.39-6.442 3-10h2c1.422-3.317 2.39-6.442 3-10h2l.848-2.188a111.474 111.474 0 0 1 7.902-15.687c1.234-2.097 1.719-3.773 2.25-6.125.65-1.342 1.317-2.675 2-4 .673-1.664 1.34-3.33 2-5l1-2c-2.376.115-4.75.242-7.125.375-.665.03-1.33.062-2.016.094-4.28.252-7.84 1.092-11.859 2.531-6.675 1.193-13.367 1.019-20.117.742-3.28.294-4.453 1.123-6.883 3.258-1.938.563-1.938.563-4 1l-2.125.938c-5.346 1.975-10.99 2.81-16.625 3.562-3.233.383-3.233.383-6.063 1.563-4.434 1.304-8.608 1.715-13.187.937-3.063-2.438-3.063-2.438-5-5l-1-1c-.119-2.16-.167-4.322-.19-6.485l-.025-2.055c-.017-1.48-.032-2.961-.045-4.441-.021-2.357-.048-4.713-.077-7.07-.06-5.025-.112-10.05-.163-15.074-.06-5.778-.123-11.556-.192-17.334a2956.13 2956.13 0 0 1-.068-6.89c-.1-9.25-.52-18.427-1.24-27.651-6.137 3.264-6.137 3.264-11.813 7.25-2.191 1.753-3.511 2.177-6.187 2.75l-1 2h-3c-2.432 2.108-4.35 4.433-6.375 6.938-3.157 3.834-6.677 6.934-11 9.437-3.236 2.003-5.88 4.456-8.707 6.992-2.163 1.842-4.48 3.184-6.918 4.633l-2.563 2.625c-2.32 2.262-3.298 3.026-6.437 3.375v2h-2l-1 2c-4.738 2.572-8.128 1.845-13.125.375-2.942-2.157-4.27-5.188-5.875-8.375l-1.117-2.156c-2.517-4.935-4.869-9.942-7.196-14.969-3.45-7.456-7.105-14.801-10.809-22.134-1.54-3.052-3.064-6.111-4.589-9.17-1.018-2.03-2.046-4.056-3.078-6.079l-.951-1.874c-.9-1.775-1.805-3.548-2.71-5.321-1.438-3.06-2.557-6.069-3.55-9.297h-1zm-31 4 1 2zm-5 10 1 2zm-5 10 1 2zm-78 5 1 2zm95 10 1 3zm113 9-2 3 4-2-2-1zm-6 5c-4.147 2.376-4.147 2.376-7 6 3.112-1.498 6.053-3.2 9-5l-2-1zm-117 5 1 2zm-1 2-1 3h2l-1-3zm107 1 1 2 1-2h-2zm-8 5v2l-2 1h3v-2l2.375-.875c2.722-.974 2.722-.974 4.625-3.125-3.599 0-5.095.958-8 3zm-102 0 1 2zm99 3 1 2zm-102 3 1 2zm-176 8-3 2h7l-4-2zm8 3 1 2 4-1-5-1zm368 32v1h5v-1h-5zm-7 1v1h7v-1h-7zm-10 2v1h5v-1h-5zm-335 54v2h2v-2h-2zm-51 13h6v-3c-2.762 0-3.893 1.314-6 3zm-10.438-.063c-2.913.87-5.03 1.235-8 1.438-7.065.573-13.775 2.68-20.562 4.625 1.06 1.69 1.06 1.69 3 3 3.224-.075 3.224-.075 6.688-.813l3.574-.644L374 621v-2l2.875.188c4.968.03 9.463-1.612 14.125-3.188l-1-3c-1.28-.06-1.28-.06-3.438.938zM452 615v5h1v-5h-1zm-18 11v1c5.527.194 9.756-.252 15-2v-1c-5.527-.194-9.756.252-15 2zm-33 8v1h8v-1h-8zm-15 4-4 2h6l-2-2zm501 65-2 1v2l-3 1 2 4h2l1 3h2v2c3.056 3.025 3.056 3.025 7 4l1 3 2 1 5 4 2 1v-2l8-1 1-3c-1.51-3.018-4.007-3.56-7-5-4.241-2.232-7.526-5.181-11.074-8.355-2.171-1.854-4.42-3.284-6.926-4.645l-3-2zm64 20 1 2zm-36 1 1 2zm34 10-1 3 4-1-1-2h-2zm-56 19v2l2-1-2-1zm3 2-1 1c-2.328.368-4.662.702-7 1v2l-3.5.313c-3.567.452-6.665 1.367-10.008 2.73a116.92 116.92 0 0 1-6.297 2.195l-2.056.661c-1.373.439-2.747.872-4.124 1.3-1.69.544-3.356 1.167-5.015 1.801l-1 2c.994 2.03.994 2.03 2.438 4.125l1.433 2.195L861 778l3.938-.438c.73-.08 1.461-.162 2.214-.246 1.86-.135 1.86-.135 2.848-1.316 1.622-.162 3.248-.278 4.875-.375 7.011-.568 13.475-2.408 20.125-4.625 3.06-.268 6.12-.444 9.188-.621 3.014-.197 3.014-.197 5.812-2.379h3v-2c-1.685-1.705-1.685-1.705-3.813-3.438-4.05-3.416-4.05-3.416-5.753-5.238-2.218-2.048-4.507-2.07-7.434-2.324zm-21 5c4.087.24 7.177-.577 11-2v-1c-4.74-.273-7.486-.374-11 3zm-5 1-3 2h5l-2-2zm-22 43c1.784 9.213 4.694 16.741 9.379 24.922 1.57 2.982 2.581 5.881 3.621 9.078 1.668 2.503 1.668 2.503 4 4 2.707-.14 2.707-.14 5-1-.555-3.895-1.647-6.319-3.938-9.5-1.723-2.405-3.045-4.455-4.128-7.219-.708-2.442-.708-2.442-2.934-3.281-.68-1.6-1.357-3.202-2.012-4.813-1.922-4.254-4.254-8.402-6.988-12.187h-2zm-396 4 1 2zm-2 2 1 3 1-3h-2zm-3 9 1 4 1-4h-2zm-5 13 1 4 1-4h-2zm-26 9-2 3h3l-1-3zm-3 5a1071.874 1071.874 0 0 0-4 7.25l-1.156 2.066-1.094 2.012-1.016 1.84c-.982 2.122-.982 2.122-.734 5.832h2c5.35-8.086 5.35-8.086 6.54-17.168L413 846zm384 9v11c11.335 3.324 22.656 6.506 34.176 9.125 4.454 1.02 8.881 2.13 13.308 3.262 4.706 1.192 4.706 1.192 9.516 1.613-1.727-6.766-4.111-13.167-8-19-5.965-2.026-11.878-2.394-18.145-2.754C825 858 825 858 822 857c-3.288-.27-6.576-.445-9.871-.621-2.943-.356-4.59-.962-7.129-2.379-3.127-.229-4.996-.001-8 1zm-364 0 2 2v-2h-2zm467 6 1 3zm-23 3v1h10v-1h-10zm17 0v1h6v-1h-6zm-391 15-1 13h-1v54c4.307-1.077 5.504-1.436 8-5 .515-3.159.421-6.246.313-9.438l-.03-2.564c-.057-3.188-.12-6.211-.769-9.34-.626-3.235-.803-6.392-.979-9.681l-.236-4.094c-.12-2.128-.236-4.256-.349-6.385-.11-2.07-.23-4.14-.352-6.209l-.203-3.728c-.417-3.762-1.257-6.962-2.395-10.561h-1zm-32 4 1 2zm-7 2 4 1zm-6 2 4 1zm-9 3 4 1zm-16 5 4 1zm-18 5v1h6v-1h-6zm289 8-2 2c.32 2.603.32 2.603 1 5l-2 1c2.947 1.8 5.888 3.502 9 5v2c2.683 3.08 5.52 4.928 9 7 1.075.881 2.137 1.778 3.188 2.688 2.463 2.524 2.463 2.524 4.812 2.312l.75 1.938c1.066 2.25 1.066 2.25 3.375 2.812L733 940v2h2v2c2.637 2.398 2.637 2.398 6 3v2a95.998 95.998 0 0 0 5 4.125l2.813 2.195L751 957c1.343-4.029 1.302-7.78 1.375-12l.113-2.484c.034-2.279.008-4.291-.488-6.516-2.431-2.09-3.786-3-7-3v-2l-2.625-1.25c-3.918-2.032-7.794-4.103-10.875-7.313-2.194-2.102-4.772-3.128-7.5-4.437-2.692-1.51-5.01-3.01-7.375-5-3.845-2.93-7.686-5-12.625-5zm-3 2 1 2zm76 4-1.063 3.75-.597 2.11c-.375 2.36-.067 3.884.66 6.14h2v-12h-1zm-182 2 1 3h2l.324 2.113c.772 3.297 2.02 6.024 3.489 9.074 1.885 3.983 3.678 7.946 5.25 12.063 1.272 3.282 2.733 6.269 4.5 9.313 2.134 3.695 3.502 7.322 4.765 11.386 1.976 6.03 5.573 11.538 8.672 17.051l2-2 2-2a252.854 252.854 0 0 0 2-6l1-1c.406-4.042-.307-6.012-2.688-9.25-3.123-4.428-5.741-8.986-8.312-13.75-2.595-4.712-5.194-9.41-8-14-1.533-2.522-3.024-5.045-4.43-7.64l-1.445-2.61-1.43-2.64c-1.54-2.315-1.54-2.315-4.203-2.907-2.574-.244-2.574-.244-5.492-.203h-1zm204 38v3l2-1v-2h-2zm-11 4-1 2h7v-1l-6-1zm-108 5 1 3 1-3h-2zm-2 3 1 2 1-2h-2zm-3 9 1 4zm-2 4 1 2zm-6 15 1 3zm-5 4v2h-5v1h7v-3h-2z" fill="#F80001"/><path d="m638.625 529.375 3.914.273c2.653.27 4.904.705 7.461 1.352 1.915.126 3.832.227 5.75.313 6.106.42 11.725 1.623 17.604 3.227 4.224 1.15 8.313 1.923 12.646 2.46v2l1.73.48c10.877 3.13 20.9 6.937 30.516 12.97 2.854 1.606 5.654 2.521 8.754 3.55 2.375 2.188 2.375 2.188 5 5 4.086 3.795 8.075 7.327 13 10l3 2v2l3 1v2l1.938.813C755 580 755 580 756 583l2 1 2 1 1 3h2c2 3 2 3 2 6l1.809.727c2.645 1.537 3.644 3.064 5.254 5.648 1.471 2.334 2.894 4.572 4.62 6.727C778 609 778 609 778 612h2c8.319 14.998 8.319 14.998 10.355 22.027.7 2.142 1.64 3.99 2.707 5.973 1.874 3.562 2.75 6.97 3.446 10.922.534 2.257 1.416 4.03 2.492 6.078 2.058 5.93 2.571 11.756 3 18h1c.025 6.372.043 12.744.055 19.116.005 2.17.012 4.338.02 6.507.013 3.113.018 6.225.023 9.338l.015 2.951v2.73l.007 2.41C803 720 803 720 802 722c-.342 2.058-.65 4.121-.938 6.188-.71 4.78-1.564 9.224-3.062 13.812l-.938 2.875c-.35 1.031-.7 2.063-1.062 3.125l-.723 2.305-.777 2.445-.719 2.297C793 757 793 757 791 759l-.379 2.117c-.865 4.018-2.687 7.37-4.558 11.008l-1.092 2.168c-1.54 3.035-3.078 5.868-4.971 8.707h-2l-.813 3.438L776 790l-3 1c-1.225 3.008-1.225 3.008-2 6h-2l-.75 1.625c-1.557 2.957-3.284 5.672-5.25 8.375h-2l-1 3h-2v2h-2l-1 3h-2v2h-2l-1 3h-2v2c-16.353 15-16.353 15-24 15v2a1883.522 1883.522 0 0 1-6.563 3.813l-1.845 1.08c-6.664 3.843-13.654 6.553-20.889 9.123a111.86 111.86 0 0 0-4.906 1.906c-4.82 2.011-8.57 2.358-13.797 2.078v2l-1.758.148-2.367.227c-.766.07-1.531.14-2.32.21-2.611.334-2.611.334-5.157 1.419-4.856 1.423-9.611 1.424-14.648 1.558-1.984.06-3.969.124-5.953.192l-2.646.072c-2.2.043-2.2.043-4.151 1.174-3.563.125-3.563.125-7 0l-1-1a69.85 69.85 0 0 0-4.332-.246l-2.67-.1c-1.862-.06-3.724-.118-5.586-.172l-2.682-.103-2.456-.076c-2.473-.33-4.088-1.137-6.274-2.303-2.815-.453-2.815-.453-5.75-.625l-2.984-.227L594 859v-2l-3.04.14c-17.014-.603-36.591-12.314-50.226-22.011-1.849-1.307-1.849-1.307-4.734-2.129v-2l-1.813-.875C532 829 532 829 529 827v-2l-1.734-.781c-2.477-1.333-4.4-2.87-6.516-4.719l-2.14-1.844C517 816 517 816 517 814l-2.188-.563c-3.417-1.746-4.672-3.703-6.699-6.878-1.044-1.72-1.044-1.72-3.113-2.559v-2l-3-1c-1.21-1.855-1.21-1.855-2.375-4.188-1.8-3.428-3.717-6.114-6.3-9.015-2.467-3.346-4.114-7.154-5.895-10.895-1.361-2.865-1.361-2.865-2.895-5.336-5.716-9.555-9.594-19.863-12.535-30.566l-1.125-3.813c-5.591-20.368-9.15-44.04-4.387-64.914.838-3.722 1.139-7.48 1.512-11.273h1l1-9h2l.148-1.898.227-2.477c.07-.812.14-1.624.21-2.46C473 643 473 643 475 641c.648-2.57.648-2.57 1-5h1l.809-2.617c1.18-3.352 2.614-6.358 4.253-9.508 2.078-3.854 2.078-3.854 3.372-7.992.805-2.676 2.59-3.936 4.566-5.883 1.08-1.82 2.1-3.677 3.063-5.563 3.18-6.219 3.18-6.219 5.937-8.437h2l1-3c4.726-6.747 10.541-12.652 16.313-18.5l1.599-1.639c1.324-1.327 2.702-2.599 4.088-3.861h2v-2l6-2 .813-2 1.187-2c3.125-.75 3.125-.75 6-1v-2c2.263-2.859 4.658-3.709 8-5 2.368-1.278 4.677-2.641 7-4l2-1v-1l2.25-.375c2.58-.586 4.498-1.258 6.75-2.625l1-2c1.962-.233 3.925-.461 5.89-.66 3.042-.49 5.4-1.902 8.11-3.34 6.493-2.595 13.113-3.906 20-5v-1l2.108-.168c3.172-.254 6.345-.512 9.517-.77l3.316-.263 3.223-.264 2.952-.238a89.726 89.726 0 0 0 6.016-.836c3.59-.577 6.87-.355 10.493-.086z" fill="#FB3230"/><path d="m638.625 529.375 3.914.273c2.653.27 4.904.705 7.461 1.352 1.915.126 3.832.227 5.75.313 6.106.42 11.725 1.623 17.604 3.227 4.224 1.15 8.313 1.923 12.646 2.46v2l1.73.48c10.877 3.13 20.9 6.937 30.516 12.97 2.854 1.606 5.654 2.521 8.754 3.55 2.375 2.188 2.375 2.188 5 5 4.086 3.795 8.075 7.327 13 10l3 2v2l3 1v2l1.938.813C755 580 755 580 756 583l2 1 2 1 1 3h2c2 3 2 3 2 6l1.809.727c2.645 1.537 3.644 3.064 5.254 5.648 1.471 2.334 2.894 4.572 4.62 6.727C778 609 778 609 778 612h2c8.319 14.998 8.319 14.998 10.355 22.027.7 2.142 1.64 3.99 2.707 5.973 1.874 3.562 2.75 6.97 3.446 10.922.534 2.257 1.416 4.03 2.492 6.078 2.058 5.93 2.571 11.756 3 18h1c.025 6.372.043 12.744.055 19.116.005 2.17.012 4.338.02 6.507.013 3.113.018 6.225.023 9.338l.015 2.951v2.73l.007 2.41C803 720 803 720 802 722c-.342 2.058-.65 4.121-.938 6.188-.71 4.78-1.564 9.224-3.062 13.812l-.938 2.875c-.35 1.031-.7 2.063-1.062 3.125l-.723 2.305-.777 2.445-.719 2.297C793 757 793 757 791 759l-.379 2.117c-.865 4.018-2.687 7.37-4.558 11.008l-1.092 2.168c-1.54 3.035-3.078 5.868-4.971 8.707h-2l-.813 3.438L776 790l-3 1c-1.225 3.008-1.225 3.008-2 6h-2l-.75 1.625c-1.557 2.957-3.284 5.672-5.25 8.375h-2l-1 3h-2v2h-2l-1 3h-2v2h-2l-1 3h-2v2c-16.353 15-16.353 15-24 15v2a1883.522 1883.522 0 0 1-6.563 3.813l-1.845 1.08c-6.664 3.843-13.654 6.553-20.889 9.123a111.86 111.86 0 0 0-4.906 1.906c-4.82 2.011-8.57 2.358-13.797 2.078v2l-1.758.148-2.367.227c-.766.07-1.531.14-2.32.21-2.611.334-2.611.334-5.157 1.419-4.856 1.423-9.611 1.424-14.648 1.558-1.984.06-3.969.124-5.953.192l-2.646.072c-2.2.043-2.2.043-4.151 1.174-3.563.125-3.563.125-7 0l-1-1a69.85 69.85 0 0 0-4.332-.246l-2.67-.1c-1.862-.06-3.724-.118-5.586-.172l-2.682-.103-2.456-.076c-2.473-.33-4.088-1.137-6.274-2.303-2.815-.453-2.815-.453-5.75-.625l-2.984-.227L594 859v-2l-3.04.14c-17.014-.603-36.591-12.314-50.226-22.011-1.849-1.307-1.849-1.307-4.734-2.129v-2l-1.813-.875C532 829 532 829 529 827v-2l-1.734-.781c-2.477-1.333-4.4-2.87-6.516-4.719l-2.14-1.844C517 816 517 816 517 814l-2.188-.563c-3.417-1.746-4.672-3.703-6.699-6.878-1.044-1.72-1.044-1.72-3.113-2.559v-2l-3-1c-1.21-1.855-1.21-1.855-2.375-4.188-1.8-3.428-3.717-6.114-6.3-9.015-2.467-3.346-4.114-7.154-5.895-10.895-1.361-2.865-1.361-2.865-2.895-5.336-5.716-9.555-9.594-19.863-12.535-30.566l-1.125-3.813c-5.591-20.368-9.15-44.04-4.387-64.914.838-3.722 1.139-7.48 1.512-11.273h1l1-9h2l.148-1.898.227-2.477c.07-.812.14-1.624.21-2.46C473 643 473 643 475 641c.648-2.57.648-2.57 1-5h1l.809-2.617c1.18-3.352 2.614-6.358 4.253-9.508 2.078-3.854 2.078-3.854 3.372-7.992.805-2.676 2.59-3.936 4.566-5.883 1.08-1.82 2.1-3.677 3.063-5.563 3.18-6.219 3.18-6.219 5.937-8.437h2l1-3c4.726-6.747 10.541-12.652 16.313-18.5l1.599-1.639c1.324-1.327 2.702-2.599 4.088-3.861h2v-2l6-2 .813-2 1.187-2c3.125-.75 3.125-.75 6-1v-2c2.263-2.859 4.658-3.709 8-5 2.368-1.278 4.677-2.641 7-4l2-1v-1l2.25-.375c2.58-.586 4.498-1.258 6.75-2.625l1-2c1.962-.233 3.925-.461 5.89-.66 3.042-.49 5.4-1.902 8.11-3.34 6.493-2.595 13.113-3.906 20-5v-1l2.108-.168c3.172-.254 6.345-.512 9.517-.77l3.316-.263 3.223-.264 2.952-.238a89.726 89.726 0 0 0 6.016-.836c3.59-.577 6.87-.355 10.493-.086zM593 539v2c1.948 1.353 1.948 1.353 4.438 2.688 19.904 11.657 31.803 28.436 38.166 50.396 7.236 28.382 1.865 60.41-4.42 88.4l-.546 2.43C630 687 630 687 628 690c-1.361-4.69-2.611-9.391-3.813-14.125-4.803-18.207-12.892-34.84-24.187-49.875l-2.078-2.828c-17.733-22.988-43.104-34.406-71.268-38.742-2.654-.43-2.654-.43-4.918-.985-2.823-.618-4.997-.847-7.584.56-4.433 3.558-7.619 8.027-10.715 12.745l-1.44 2.159a621.658 621.658 0 0 0-2.781 4.227 317.468 317.468 0 0 1-2.974 4.462C488.032 620.317 478.284 640.664 479 656c0 2.437-.553 4.67-1.048 7.046-2.14 10.68-2.412 21.145-2.343 32.01.016 3.006 0 6.01-.02 9.016-.535 18.725-.535 18.725 5.411 35.928l-1.055 2.574c-1.382 5.008.203 8.46 1.93 13.239l.983 2.804C487.974 772.87 494.098 786.385 504 798h2l.188 1.625c1.212 3.545 3.211 5.715 5.812 8.375 2.597.708 2.597.708 5 1l-.003-1.794c.111-25.147 6.101-47.205 24.003-65.581a174.362 174.362 0 0 1 4-3.625l2.086-1.871c7.939-6.733 16.931-11.93 25.914-17.129l2.139-1.24c14.411-8.25 29.846-14.06 45.681-18.97 2.424-.78 2.424-.78 5.18-2.79v3l-1.625.652C612.609 706.33 604.141 719.91 597 731l-1.513 2.32c-3.963 6.302-6.704 12.757-9.237 19.742l-1.168 3.104C579.79 770.494 576.789 785.769 579 801c.133 1.426.263 2.851.39 4.277 1.404 13.492 5.898 24.985 11.513 37.27C592 845 592 845 592.974 847.705c.893 2.554.893 2.554 3.713 4.045 5.853 2.209 11.86 2.425 18.063 2.523l2.204.038c21.201.293 41.71-.539 61.046-10.311l-4-1v-2l-3.148-1.652c-7.613-4.083-14.405-8.129-20.641-14.207-2.26-2.266-2.26-2.266-5.203-4.465-3.366-2.785-5.412-5.937-7.508-9.739l-1.159-2.1c-15.461-29.384-14.226-65.386-10.611-97.417.461-4.136.862-8.278 1.27-12.42h2l.277 2.938c.674 4.67 2.417 8.755 4.285 13.062l1.08 2.516c14.043 32.18 36.263 56.271 69.026 69.607 9.118 3.488 18.268 4.86 27.957 5.672 2.067.178 4.126.428 6.184.69 3.998.339 6.83.546 10.109-1.938 1.993-2.39 3.5-4.865 5.082-7.547.83-1.273 1.664-2.542 2.504-3.809C760.152 773.094 764.38 766.13 767 758c-3.509-1.17-4.998-.48-8.393.691-21.139 7.27-42.493 2.955-62.227-6.495C671.9 739.894 652.138 721.252 633 702l1-3 1.957.918c6.405 2.847 12.773 4.984 19.543 6.77.758.201 1.515.403 2.296.612 29.481 7.534 62.528 6.338 89.204-9.3 11.786-7.205 23.846-16.754 32-28 3.476-20.292-11.724-48.289-22.563-64.31a298.17 298.17 0 0 0-7.32-9.819C747 593 747 593 746 590h-2l-.832-1.808c-10.446-19.594-37.837-32.008-57.293-40.192l-2.08-.882c-4.265-1.726-8.202-2.55-12.795-3.118-1.833-.72-3.667-1.442-5.496-2.172-10.74-3.552-22.39-4.98-33.656-4.996l-2.603-.01c-1.808-.005-3.616-.007-5.423-.007-2.748-.002-5.495-.02-8.242-.04-1.765-.003-3.53-.005-5.295-.005l-2.46-.022c-5.259.02-9.767.794-14.825 2.252z" fill="#F80001"/><path d="M527.912 584.598c2.123.409 4.247.736 6.385 1.054 19.539 3.184 37.511 11.55 51.703 25.348 1.35 1.068 2.704 2.13 4.062 3.188C610.31 632.08 623.255 662.685 627 689v4l-2 1-.854 1.956c-1.491 2.66-2.593 2.896-5.478 3.755l-2.65.824-2.83.84c-8.45 2.663-16.259 5.65-24.188 9.625-1.236.59-2.473 1.179-3.71 1.766C565.652 722.18 546.553 733.564 533 751l-2.082 2.66c-5.78 7.969-8.407 15.97-10.918 25.34l-1.094 3.234c-1.257 5.225-1.371 10.347-1.531 15.704l-.117 3.228c-.094 2.611-.18 5.222-.258 7.834-3.964-.672-5.735-1.218-8.313-4.375l-1.55-1.836C506 801 506 801 506 798l-3-1c-11.234-12.798-22.88-35.739-24-53 .958-2.261.958-2.261 2-4l-2-3c-3.318-11.82-3.469-23.738-3.391-35.927a768.9 768.9 0 0 0-.02-9.009c-.009-10.57.608-20.601 2.768-30.96.71-2.902.71-2.902.643-5.104.42-6.194 1.597-11.767 3.625-17.625l.803-2.353c2.666-7.605 5.87-14.868 9.572-22.022l.93-1.796c16.388-31.146 16.388-31.146 33.982-27.606z" fill="#FB3230"/><path d="M744 592c3.327 1.395 4.924 2.862 6.953 5.824l1.615 2.343 1.682 2.52 1.749 2.606C767.836 623.163 776.19 642.566 779 664l.422 2.988c-.624 4.458-3.022 6.629-6.11 9.762l-1.779 1.85c-21.444 21.807-48.198 32.681-78.658 32.962-19.917-.017-38.564-3.805-56.875-11.562l-3-1c.581 3.518 1.796 5.163 4.316 7.645l2.069 2.052 2.178 2.115 2.095 2.08c26.091 25.703 58.377 49.28 96.297 49.562 8.733-.197 16.81-2.728 25.045-5.454l2 2c-5.619 11.888-11.794 24.454-21 34-3.915 1.157-7.97.39-12 0l-2.335-.176C708.334 790.99 688.982 782.884 671 768l-1.62-1.33A108.897 108.897 0 0 1 654 751l-1.82-2.207C640.7 734.038 633.568 716.693 628 699l2-1v-2a858.066 858.066 0 0 1 19.282-6.84c20.425-6.786 20.425-6.786 39.421-16.722 2.409-1.508 4.878-2.736 7.422-4 9.962-5.351 19.048-13.326 26.875-21.438l2.648-2.629C739.414 629.93 742.146 611.21 744 592z" fill="#FBDE5D"/><path d="M593 539v2l2.629.738c8.518 3.188 16.43 10.455 22.371 17.262l2.363 2.621c19.73 22.973 20.401 53.922 18.41 82.655-1.483 16.207-4.233 33.38-9.773 48.724-3.356-3.592-3.939-7.582-4.813-12.25-4.136-20.04-12.913-38.42-25.187-54.75l-2.113-2.863c-17.572-22.712-42.648-33.155-70.342-37.707A219.163 219.163 0 0 1 519 584c1.083-8.279 8.656-12.859 14.813-17.813C549.064 554.482 573.097 539 593 539z" fill="#FC3230"/><path d="m625 695 2 2c-2.528 2.551-5.067 5.062-7.691 7.516C610.925 712.5 604.278 721.288 598 731l-1.518 2.325c-3.96 6.3-6.7 12.754-9.232 19.737l-1.168 3.104C580.79 770.494 577.789 785.769 580 801c.133 1.426.263 2.851.39 4.277 1.408 13.523 5.936 24.984 11.626 37.27.995 2.48 1.546 4.822 1.984 7.453-17.348-2.338-35.044-8.803-50-18l-2.313-1.348c-4.22-2.513-4.22-2.513-5.687-3.652v-2l-2.645-.684c-3.899-1.53-6.046-3.473-9.043-6.379-3.7-3.713-3.7-3.713-8.312-5.937l-1-3h2l-.095-1.794c-1.136-24.865 4.85-44.957 21.4-63.835A132.711 132.711 0 0 1 545 737l2.152-1.938C555.064 728.356 564.05 723.18 573 718l2.139-1.24c14.435-8.262 29.899-14.11 45.779-18.97 2.26-.695 2.26-.695 4.082-2.79z" fill="#FB3230"/><path d="M627 699h2l1.145 3.637c5.608 17.21 13.074 34.42 24.855 48.363l1.333 1.61c20.03 23.915 46.456 36.168 77.038 39.199l2.062.208c1.868.183 3.737.35 5.606.516C744 793 744 793 747 795l-2.031 2.02a582.885 582.885 0 0 0-6.5 6.617C721.812 820.707 701.446 837.428 678 844c-2.375-.375-2.375-.375-4-1v-2l-2.566-.738c-3.784-1.39-7.016-3.258-10.371-5.45l-1.87-1.21c-3.943-2.614-7.41-5.347-10.568-8.899-1.74-1.906-1.74-1.906-4.531-3.965-3.409-2.812-5.474-5.956-7.594-9.8l-1.159-2.102C618.431 776.701 619.528 733.598 627 699z" fill="#FB312F"/><path d="M626 698c1.232 3.696.717 5.905.125 9.75-4.973 34.929-6.426 79.717 15.61 109.655 8.468 10.682 20.216 17.57 32.265 23.595v2l4 1c-17.95 7.427-34.172 10.362-53.563 10.375l-2.382.006c-21.493-.006-21.493-.006-28.055-4.381-2.32-4.168-4.102-8.6-5.938-13l-.817-1.95c-6.808-16.452-10.368-33.244-8.245-51.05l.254-3.8c2.776-31.586 21.992-60.166 44.746-81.2l2-1z" fill="#FADD5C"/><path d="M527.896 584.614c2.13.39 4.263.715 6.405 1.034C553.839 588.85 571.805 597.198 586 611a639.19 639.19 0 0 0 4.063 3.188C610.31 632.08 623.255 662.685 627 689v4l-5-2v-2l-1.79-.832c-2.122-1.121-3.75-2.307-5.573-3.855l-1.914-1.603-2.035-1.71c-25.77-21.244-59.874-41.523-94.438-39.875-13.102 1.445-23.917 7.59-35.25 13.875-2-3-2-3-1.75-5.355 6.237-23.553 16.923-48.184 34.605-65.457 4.323-2.394 9.396-.456 14.041.426z" fill="#FBDE5D"/><path d="M778 670c2 1 2 1 2.617 2.818.629 3.583.525 7.188.516 10.815l.003 2.524c0 1.757-.001 3.514-.006 5.27-.005 2.695 0 5.39.007 8.085 0 1.707-.002 3.414-.004 5.12l.006 2.45c-.024 5.688-.024 5.688-1.139 7.918-.156 1.643-.276 3.29-.375 4.938-.504 5.961-1.884 11.355-3.625 17.062l-.945 3.3c-3.745 12.782-3.745 12.782-7.055 17.7-2.32.411-4.658.735-7 1-2.113.66-4.217 1.349-6.313 2.063-21.52 6.253-43.774-.118-62.993-10.283-18.264-10.12-34.003-23.496-48.885-38.027a264.792 264.792 0 0 0-4.907-4.624l-2.527-2.379-2.102-1.953L632 702c.42-2.112.42-2.112 1-4l3.277 1.355c31.711 12.67 68.495 16.582 100.572 2.94C752.773 695.017 767.018 683.585 778 670z" fill="#FB322F"/><path d="m609.898 536.7 2.527-.014c1.76-.005 3.52-.006 5.28-.002 2.628.003 5.256-.02 7.885-.045 10.11-.037 19.703.743 29.636 2.649 3.178.6 6.315 1.023 9.524 1.4 3.532 1.157 4.191 2.204 6.004 5.535 1.44 3.481 2.534 7.045 3.59 10.659.588 1.898 1.315 3.752 2.058 5.595C681.171 574.5 681.495 587.196 682 600l.106 2.412c.685 28.104-15.07 55.24-33.731 75.17a730.914 730.914 0 0 1-10.479 10.486c-2.803 2.694-2.803 2.694-4.896 5.932h-3c-1.06-3.249-.91-5.34-.074-8.633l.666-2.695.72-2.797c8.681-34.525 13.693-77.7-5.312-109.875-6.883-9.857-15.585-18.476-25.813-24.813l-2.832-1.769c-2.264-1.405-2.264-1.405-4.355-2.418v-2c5.77-1.644 10.914-2.308 16.898-2.3z" fill="#FADD5C"/><path d="m613.813 690.938 2.05.477c3.485.89 5.908 1.676 8.137 4.585-1 2-1 2-2.835 2.774l-2.4.742-2.659.843-2.856.891c-8.44 2.727-16.313 5.772-24.25 9.75-1.236.59-2.473 1.179-3.71 1.766C565.652 722.18 546.553 733.564 533 751l-2.082 2.66c-5.78 7.969-8.407 15.97-10.918 25.34l-1.094 3.234c-1.257 5.225-1.371 10.347-1.531 15.703l-.117 3.229c-.094 2.611-.18 5.222-.258 7.834-3.964-.672-5.735-1.218-8.313-4.375l-1.55-1.836C506 801 506 801 506 798l-3-1c-11.47-13.068-22.444-35.498-24-53 5.295-16.18 26.373-34.377 41-42l3.207-1.738c28.307-14.837 59.775-16.651 90.606-9.324z" fill="#FBDE5D"/><path d="M630 696c2.9 2.523 2.9 2.523 3.39 4.882.77 2.671 1.953 3.82 3.926 5.763l2.069 2.052 2.178 2.115 2.095 2.08c26.091 25.703 58.377 49.28 96.297 49.562 8.733-.197 16.81-2.728 25.045-5.454l2 2c-5.619 11.888-11.794 24.454-21 34-3.915 1.157-7.97.39-12 0l-2.335-.176C708.334 790.99 688.982 782.884 671 768l-1.62-1.33A108.897 108.897 0 0 1 654 751l-1.82-2.207C640.7 734.038 633.568 716.693 628 699l2-1v-2z" fill="#FADD5C"/><path d="M420 511c1.75.115 3.5.242 5.25.375.975.07 1.95.14 2.953.21 2.741.407 4.366 1.172 6.797 2.415 2.35.38 2.35.38 4.813.5 5.181.434 9.836 1.475 14.625 3.563 2.792 1.021 5.445 1.35 8.402 1.593 2.845.453 5.429 1.43 8.16 2.344 2.643.65 5.283 1.277 7.938 1.875 5.105 1.165 10.166 2.407 15.205 3.834 8.064 2.273 13.956 3.662 21.857.291.082 2.542.14 5.082.188 7.625l.076 2.16c.066 4.838-.708 7.962-3.264 12.215h-4v2c-7.843.469-14.468-.94-22-3-8.436-2.113-8.436-2.113-17-3.563-3-.437-3-.437-5.438-1.437-3.504-1.368-6.822-1.62-10.562-2v-3l-1 2-12-2v-2l-1.793.176-2.394.136-2.356.176c-3.78-.751-5.07-2.5-7.457-5.488-1.515-2.96-2.677-6.003-3.813-9.125l-.943-2.457C420 514.45 420 514.45 420 511z" fill="#F9BF58"/><path d="m603.625 884.938 3.04.027L609 885v2l1.813.813c2.23 1.21 3.642 2.178 5.187 4.187v4l4 2v3l1 3h2l1 5h2l.75 2.188c1.365 3.071 3.125 5.222 5.25 7.812 1.908 3.148 2 4.094 2 8l3 1c1.387 1.707 1.387 1.707 2.688 3.813l1.324 2.082C642 936 642 936 642 940l3-1c-.388 6.94-1.819 11.429-5.438 17.313l-2.433 4.113-1.136 1.889A69.113 69.113 0 0 0 633 968l-.883-1.652c-2.214-4.073-4.507-8.015-7.117-11.848-2.958-4.358-5.5-8.868-8-13.5-4.463-8.111-4.463-8.111-9.293-16.008l-1.394-2.18-1.325-2.042C604 919 604 919 604 917h-8c-4.044-5.166-8.496-12.56-10-19 1.143-3.477 3.421-5.66 6-8.188l2.125-2.105c3.197-2.91 5.266-2.819 9.5-2.77z" fill="#F6BB56"/><path d="M447 602c2.625 1.188 2.625 1.188 5 3v4h2c1.879 3.757 1.65 7.918 1 12-1.53 2.738-3.295 4.424-6 6-3.813.813-3.813.813-7 1l-1 1a388.41 388.41 0 0 1-10.566 1.807c-4.076.679-7.618 1.554-11.434 3.193-1.553.376-3.117.71-4.688 1l-2.601.496L409 636c-1.855.35-3.71.704-5.563 1.063l-2.503.472c-1.929.286-1.929.286-2.934 1.465-2.254.283-4.508.448-6.773.621-2.506.271-2.506.271-5.227 2.379-8.857 0-15.807-8.478-21.996-13.95C362 626 362 626 361 623c3.538-2.123 6.921-2.622 11-3l2 1v-2a712.99 712.99 0 0 1 21.398-4.465 315.376 315.376 0 0 0 14.04-3.097c5.842-1.374 11.576-2.09 17.562-2.438v-2l3.867-.84 5.008-1.097 2.55-.553 2.442-.537 2.254-.492c1.95-.429 1.95-.429 3.879-1.481zm5 13v5h1v-5h-1zm-18 11v1c5.527.194 9.756-.252 15-2v-1c-5.527-.194-9.756.252-15 2zm-33 8v1h8v-1h-8zm-15 4-4 2h6l-2-2z" fill="#F7BD57"/><path d="M513.75 849.688c3.657.036 5.101.229 8.375 2.062C524 854 524 854 524 858h2c1.24 2.48 1.19 4.279 1.281 7.05l.114 3.057.105 3.206c.07 2.08.142 4.158.219 6.238l.092 2.802c.129 2.63.129 2.63.7 5.102.568 2.958.601 5.709.587 8.72l-.01 3.507-.025 3.63-.014 3.69c-.012 3-.028 5.999-.049 8.998h2c1.97 9.152 1.97 9.152-.035 12.973-1.862 1.935-3.785 3.452-5.965 5.027l-1.58 1.167C512.762 941 512.762 941 510 941l-.148-3.613-.227-4.7c-.03-.785-.062-1.57-.094-2.38l-.117-2.295-.095-2.11c-.24-2.227-.24-2.227-2.319-4.902-.379-2.617-.379-2.617-.563-5.875l-.218-3.754L506 907l-.281-5.277c-.095-1.845-.189-3.69-.281-5.535l-.134-2.639c-.26-5.523-.343-11.02-.304-16.549h-2c-.973-2.92-1.193-5.054-1.316-8.105l-.127-2.979-.12-3.104-.13-3.138c-.106-2.558-.209-5.116-.307-7.674l3.438-.438c3.65-.576 5.52-1.768 9.312-1.875zM874 800c2.739 3.269 3 4.666 3 9l3 1c2 3 2 3 2 7h2l1 5 3 1c.354 1.328.685 2.662 1 4l1.375 1.375c2.27 2.27 3.367 4.689 4.625 7.625v4l3 1v4h2l1 3 2 2a126.235 126.235 0 0 1 2 6l-1 1 1 3h-2l-.375 2.375C902 865 902 865 900 867c-3.208.451-6.452.324-9.688.313l-2.685.048c-5.651.005-9.698-.515-14.627-3.361-3.336-3.406-5.258-7.194-7.25-11.5l-1.578-3.344c-1.117-3.01-1.432-4.99-1.172-8.156h6c-.553-3.927-1.667-6.314-4-9.5s-3.447-5.573-4-9.5l-3-1c-.742-1.586-1.47-3.181-2.105-4.813-1.71-4.18-3.848-8.165-5.895-12.187 2.7-2.7 5.568-2.978 9.188-3.688l1.962-.431c4.543-.912 8.337-.928 12.85.119zm26 61 1 3zm-23 3v1h10v-1h-10zm17 0v1h6v-1h-6z" fill="#F8BD57"/><path d="M523 433c3.548 1.971 6.187 4.09 9 7l2 1v2l4 1v2l3 1v2l1.703.738c2.737 1.504 4.755 3.329 7.047 5.45l2.672 2.449L555 460a685.175 685.175 0 0 0 4 3.5 683.28 683.28 0 0 1 9 8c13.984 14.7 13.984 14.7 31.563 21.688l2.316-.02c2.31-.097 2.31-.097 5.121-1.168l1-5 2 1c-1.45 3.791-3.152 7.387-5 11h-2v2.625c-1.275 4.303-3.097 5.806-6.73 8.3-3.902 1.848-6.18 1.344-10.27.075-1.188-2-1.188-2-2-4l-2.281-.41c-3.213-.697-4.613-1.837-7.032-4.027l-2.113-1.872C571 498 571 498 571 496l-2.254-.293c-3.111-.801-4.382-1.821-6.683-4.02-2.4-2.219-4.558-4.01-7.313-5.812C552 484 552 484 550 481.437c-2.39-2.913-4.632-3.786-8-5.437-6.442-4.884-6.442-4.884-8-8a203.26 203.26 0 0 0-4-2 67.489 67.489 0 0 1-3.625-2.875c-.59-.492-1.18-.985-1.79-1.492-3.096-3.189-3.583-4.985-3.597-9.531.097-1.493.205-2.986.324-4.477l.147-2.25c.291-4.176.776-8.254 1.541-12.375zm80 62 1 2zm-3 6 1 2z" fill="#F8BC57"/><path d="M712.355 882.766c1.8 1.402 1.8 1.402 4.582 2.922L719 887v2l2.313.313c3.012.77 3.558 1.558 5.687 3.687 2.032 1.196 2.032 1.196 4.188 2.188l2.167 1.042L735 897v2l2.188.75c3.077 1.368 5.196 3.144 7.812 5.25l3.125 1.438c3.548 1.928 4.314 2.83 5.875 6.562.22 3.794-.039 7.526-.313 11.313-.06 1.026-.122 2.053-.185 3.11-.153 2.528-.32 5.052-.502 7.577-1.86.582-1.86.582-4 1-2.25-1.313-2.25-1.313-4-3v-2l-2-.125c-3.733-1.089-6.055-3.006-9.082-5.39-2.199-1.702-4.53-3.065-6.918-4.485l-2.438-2c-2.736-2.136-5.448-3.473-8.562-5a646.092 646.092 0 0 1-4.063-2.75c-3.158-2.034-3.158-2.034-6.937-2.063l-2 .813 1 3-1 2c-4.504-1.457-7.677-3.995-11.188-7.063-3.67-3.305-3.67-3.305-7.812-5.937-.55-5.228.987-8.938 3.027-13.633 1.02-2.294 1.02-2.294 1.465-4.535.854-3.082 2.898-4.15 5.508-5.832 7.198-2.19 12.691.418 18.355 4.766zM701 910l1 2z" fill="#F7BC56"/><path d="M910 691c2 2 2 2 3 4l2.188.848c3.41 1.397 5.905 3.331 8.812 5.59 6.627 5.19 6.627 5.19 14.25 8.562l2.75 1 1 3c1.988 1.57 1.988 1.57 4.375 3 5.948 3.72 5.948 3.72 7.625 6 .434 2.777.434 2.777.438 5.938l.058 3.152c-.608 3.568-1.63 4.76-4.496 6.91h-3v2c-3.674 1.176-7.17 1.074-11 1v2l-8 1v2c-4.202-1.424-7.106-3.476-10.5-6.313l-2.781-2.3c-8.26-7.25-8.26-7.25-8.719-11.387l8-1v-5l-2.313-.313c-3.006-.769-3.6-1.516-5.687-3.687l-2.875-1.375c-3.419-1.778-5.45-3.88-8.125-6.625l-2.688-1.563c-2.592-1.61-3.096-2.722-4.312-5.437a897.798 897.798 0 0 1 5.125-4.313l2.883-2.425c8.339-6.303 8.339-6.303 13.992-4.262zm41 32 1 2zm-36 1 1 2zm34 10-1 3 4-1-1-2h-2zM453.578 780.008c3.514 1.44 4.826 2.509 6.422 5.992.888 7.76-.635 13.113-3.875 20.063-2.14 4.717-3.637 9.566-5.098 14.53L450 823l-3 1 .188 2.563c-.228 4.173-1.39 6.691-3.188 10.437h-2l.148 2.574c-.167 3.866-1.103 6.649-2.523 10.239l-1.336 3.457C437 856 437 856 435 857l-1-1-.438 1.938C433 860 433 860 432 861c-2.728.57-5.444 1.086-8.188 1.563l-2.29.42c-4.23.744-8.209 1.175-12.522 1.017.476-2.126.956-4.25 1.438-6.375l.808-3.586C412 851 412 851 413 849c.673-1.664 1.34-3.33 2-5h2l-.125-2.875C417 838 417 838 419 836a77.77 77.77 0 0 0 1.813-4.438c3.242-8.326 7.046-16.336 11.062-24.312 2.743-5.453 5.45-10.92 8.063-16.438l1.714-3.605c1.424-3.087 1.424-3.087 1.914-6.07L444 779c3.311-1.656 6.193-.098 9.578 1.008zM452 808l1 2zm-2 2 1 3 1-3h-2zm-3 9 1 4 1-4h-2zm-5 13 1 4 1-4h-2z" fill="#F8BD57"/><path d="M780 829c26.511.511 26.511.511 30 4 3.862.384 7.72.72 11.592.986 5.663.5 10.95 1.244 15.408 5.014 2.16 3.172 3.58 6.508 5 10.063l1.191 2.76C846 858.462 846 858.462 846 862l-3.125-.938c-5.238-1.337-10.518-1.534-15.898-1.816C824 859 824 859 822 858c-3.276-.278-6.553-.447-9.836-.621-2.992-.358-4.56-1.011-7.164-2.379-2.133-.24-2.133-.24-4.25-.125L797 855l1 10c-3.844.961-4.72 1.062-8.258.04l-2.394-.68-2.473-.735c-.824-.235-1.647-.47-2.496-.71-6.018-1.734-6.018-1.734-8.379-2.915-1.297-5.273-1.323-10.72-1.438-16.125l-.138-2.707c-.044-2.528-.017-4.708.576-7.168 2.965-2.555 2.965-2.555 6-4l1-1z" fill="#F7BC57"/><path d="M779 884c2.695.44 5.187.984 7.813 1.688l2.158.529c4.107 1.06 7.694 2.046 11.029 4.783.506 2.663.676 4.714.637 7.379l.031 2.202c.03 2.328.026 4.654.02 6.981.011 3.044.037 6.086.074 9.13l.023 2.228c.086 4.79.65 9.176 1.75 13.824.854 4.142.873 8.29.903 12.506l.1 2.602c.035 4.25-.137 7.252-2.784 10.691-3.436 3.065-5.187 3.424-9.617 3.629-3.066-.247-4.732-1.287-7.137-3.172l-3.063-1.813c-3.541-2.637-5.114-4.12-6.937-8.187-.635-7.366-.166-14.712 1-22l3-1-.092-1.95c-1.003-21.633-1.003-21.633-1.096-31.425l-.042-3.773C777 886 777 886 779 884zm20 70v3l2-1v-2h-2zm-11 4-1 2h7v-1l-6-1z" fill="#F8BC57"/><path d="M881.355 738.152c2.834 1.98 5.388 4.1 7.957 6.41l2.676 2.38C894 749 894 749 894 751l5 2c-1.563 2-1.563 2-4 4-3.75.25-3.75.25-7 0v2c-1.353.46-2.708.918-4.063 1.375l-2.285.773a178.67 178.67 0 0 1-5.965 1.79c-3.914 1.127-7.766 2.384-11.625 3.687l-2.072.695c-1.664.559-3.327 1.12-4.99 1.68l1.5 2.75C860 775 860 775 860 779c-16.255 3.885-16.255 3.885-23 3-1.543-2.207-1.543-2.207-3-5l-1.57-2.605-1.555-2.582-1.57-2.606c-2.619-4.43-3.11-8.09-2.305-13.207 1.425-2.457 2.94-3.992 5-6l2 1 1-1c2.938-1.125 2.938-1.125 6-2l2 1v-2l2.273-.516c6.101-1.444 11.769-3.206 17.543-5.636 2.703-1.05 5.31-1.514 8.184-1.848 8.758-1.63 8.758-1.63 10.355-.848zM893 753v2l2-1-2-1zm-18 7c4.087.24 7.177-.577 11-2v-1c-4.74-.273-7.486-.374-11 3zm-5 1-3 2h5l-2-2z" fill="#F8BD57"/><path d="M679 927c5.608 1.124 9.278 4.678 12.375 9.313L693 939l-.875 1.563c-1.413 3.061-2.214 6.193-3.125 9.437-1.976 5.27-4.302 10.41-6.563 15.563-1.303 3.116-2.39 6.227-3.437 9.437a305.65 305.65 0 0 1-2 5h-2l.188 2.563c-.228 4.173-1.39 6.691-3.188 10.437h-2l-.25 2.25c-.954 3.498-1.73 4.712-4.75 6.75-4.19.705-7.816.421-11.813-1-3.146-2.877-4.861-5.96-6.187-10-.194-8.93 7.257-18.269 11.563-25.838a250.804 250.804 0 0 0 6.875-13.037c4.197-8.553 8.886-16.827 13.562-25.125zm1 36 1 3 1-3h-2zm-2 3 1 2 1-2h-2zm-3 9 1 4zm-2 4 1 2zm-6 15 1 3zm-5 4v2h-5v1h7v-3h-2z" fill="#F8BE57"/><path d="M651 412c1.767 3.412 3.27 6.91 4.766 10.45l.818 1.931c.584 1.38 1.168 2.76 1.75 4.14l2.785 6.58c2.926 6.908 5.847 13.818 8.765 20.73 1.24 2.936 2.481 5.871 3.723 8.807a5493.95 5493.95 0 0 1 2.597 6.158c1.58 3.743 3.183 7.475 4.796 11.204l.805 1.875c.78 1.806 1.577 3.604 2.375 5.402l1.382 3.14c2.205 3.96 4.203 5.093 8.438 6.583 3.297 0 5.82-.348 9-1h3v-2c1.688-1.297 1.688-1.297 4-2.75 7.681-4.957 14.805-10.62 22-16.25l2 1a876.4 876.4 0 0 1-4.188 3.813l-2.355 2.144c-2.383 1.982-4.8 3.462-7.457 5.043a109.238 109.238 0 0 0-4 3.5c-2.866 2.57-5.69 4.532-9 6.5l-2.563 2.688C702 504 702 504 698 504v2h-2l-1 3c-3.94 2.252-6.676 2.171-11 1-4.895-2.098-6.725-5.406-9-10l-1.113-2.152c-2.521-4.935-4.872-9.945-7.2-14.973-3.45-7.456-7.105-14.801-10.809-22.134-1.54-3.055-3.07-6.115-4.585-9.182a277.453 277.453 0 0 0-3.117-5.961c-7.044-13.262-7.044-13.262-6.176-19.598 1.008-2.902 2.38-5.4 4-8l1.625-2.938C649 413 649 413 651 412z" fill="#F7BD57"/><path d="M573 923c2.87 3.653 4.773 6.41 5.438 11.063L578 937c-2.063 1.375-2.063 1.375-5 3-1.856 1.928-3.564 3.95-5.293 5.992-2.124 2.499-4.286 4.795-6.707 7.008h-2l-1 3h-2v2c-1.426 1.148-1.426 1.148-3.313 2.375-2.874 1.959-4.627 3.816-6.687 6.625l-2.258 1.266c-3.254 2.058-5.416 4.504-7.992 7.359-3.176 3.33-5.837 6.078-10.563 6.75-3.998-.057-6.901-1.028-10.187-3.375-2.196-2.708-2.928-4.439-3.371-7.895.371-3.105.371-3.105 2.39-5.378l2.793-2.102 3.079-2.352L523 959l2.547-1.898c2.8-2.06 5.625-4.082 8.453-6.102 2.919-2.101 5.834-4.207 8.75-6.313l2.327-1.678a1745.686 1745.686 0 0 0 16.977-12.407A242.68 242.68 0 0 1 573 923z" fill="#F8BC57"/><path d="M333.563 629.875c4.155 1.36 4.92 2.617 7.437 6.125 1.86 1.752 3.797 3.397 5.738 5.059 6.08 5.219 11.965 10.668 17.887 16.066 3.056 2.783 6.125 5.545 9.25 8.25 4.25 3.687 8.362 7.52 12.47 11.363l1.604 1.492 1.417 1.325c2.143 1.895 4.4 3.658 6.634 5.445h-22v-2h-2.563c-4.413-1.284-5.699-3.38-8.507-6.875-2.624-2.889-5.637-4.703-8.93-6.75-2.54-1.746-4.11-3.962-6-6.375l-2.813-1.375c-3.627-1.85-5.758-4.077-8.527-7.004-1.678-1.784-1.678-1.784-4.285-3.058-3.655-2.405-5.591-5.61-7.375-9.563-.772-4.557-.56-6.185 2.063-10 2.937-2 2.937-2 6.5-2.125z" fill="#F7BD56"/><path d="m354.41 771.203 3.534.969a3772.06 3772.06 0 0 1 11.118 3.078l7.381 2.027c5.824 1.6 11.64 3.226 17.455 4.86 2.85.793 5.707 1.562 8.566 2.322l4.657 1.275 2.081.531c2.945.826 4.494 1.28 6.228 3.877L416 792l-4 5-3-1c-2.393-.226-4.79-.408-7.188-.563l-3.855-.253L395 795v-2l-2.852.07-3.773.055-3.727.07c-3.633-.194-6.235-1.012-9.648-2.195-2.264-.253-4.537-.44-6.813-.563C362.1 790.1 362.1 790.1 361 789a65.487 65.487 0 0 0-4.035-.535l-2.451-.264-2.577-.264-2.587-.275c-2.117-.225-4.233-.444-6.35-.662v-2l-3.75.25c-2.923-.026-4.024-.11-6.563-1.688-2.375-3.607-3.52-7.426-4.687-11.562h2v-4c6.688-3.344 17.702 1.326 24.41 3.203z" fill="#F9BF57"/><path d="M480 875c.25 6.625.25 6.625-2 10-1.918.625-1.918.625-4.188 1-4.247.815-7.85 2.24-11.812 4-2.327.69-4.66 1.355-7 2-1.48.54-2.959 1.082-4.438 1.625-4.357 1.49-7.98 1.625-12.562 1.375v2l-3.395 1.059-4.418 1.379-2.236.697A491.34 491.34 0 0 0 419 903c-2.333.04-4.667.044-7 0v2c-4.436-.672-8.153-1.649-12-4-1.49-3.241-2.312-6.508-3-10 2.652-3.518 6.045-3.91 10.146-4.642l2.194-.42c2.392-.454 4.788-.892 7.183-1.329 1.666-.31 3.331-.623 4.996-.936 3.49-.652 6.983-1.297 10.476-1.936a2460.54 2460.54 0 0 0 13.413-2.498c3.44-.647 6.88-1.285 10.32-1.92 1.65-.305 3.298-.613 4.945-.924 2.306-.433 4.614-.853 6.922-1.271l2.057-.393c3.733-.66 6.685-.756 10.348.269zm-9 8 1 2zm-7 2 4 1zm-6 2 4 1zm-9 3 4 1zm-16 5 4 1zm-18 5v1h6v-1h-6z" fill="#F7BD57"/><path d="m772 448 2 1c.223 17.481-.391 34.806-1.5 52.25-3.175 20.794-3.175 20.794-.461 40.584 1.755 1.86 3.684 3.028 5.961 4.166v2c7.176-.57 14.142-1.677 21.197-3.072 5.48-1.035 5.48-1.035 8.803.072-5.892 2.75-12.354 3.647-18.75 4.5-3.233.383-3.233.383-6.063 1.563-4.437 1.305-8.598 1.573-13.187.937-3.395-2.051-4.803-3.705-7-7a113.72 113.72 0 0 1-.382-8.34l-.05-2.577c-.052-2.817-.088-5.633-.123-8.45l-.087-5.87c-.06-4.104-.11-8.208-.156-12.312-.06-5.259-.148-10.516-.243-15.774-.069-4.043-.119-8.085-.164-12.127a846.804 846.804 0 0 0-.094-5.816 687.903 687.903 0 0 1-.095-8.136l-.062-2.425c0-3.704.285-5.9 2.278-9.066 2.521-2.439 5.192-4.275 8.178-6.107z" fill="#F2B553"/><path d="M409 725v2h-3l-.76 1.743c-1.407 2.561-3.022 4.298-5.084 6.366l-2.277 2.286-2.379 2.355-2.379 2.402-2.277 2.27-2.088 2.08C387 748 387 748 385 748l-1 3c-3.228 2.597-5.264 4.036-9.453 3.95-7.352-1.237-14.475-3.634-21.547-5.95.371-2.592.76-3.771 2.68-5.605l2.195-1.582c4.71-3.487 9.228-7.16 13.742-10.895 3.431-2.762 5.583-4.143 9.945-4.48 3.345-.253 3.345-.253 6.438-1.438 6.788-1.005 14.365-2.123 21 0z" fill="#F7BA56"/><path d="M389 507c2.348.246 2.348.246 5 1 1.371 1.723 1.371 1.723 2.438 4.063.41.9.822 1.799 1.246 2.726 1.797 4.385 3.461 8.813 5.09 13.263 1.398 3.809 2.876 7.522 4.601 11.198 2.76 5.89 5.133 11.92 7.525 17.966a676.879 676.879 0 0 0 5.17 12.749l.985 2.35a785.51 785.51 0 0 0 1.862 4.393C424.148 579.64 425 581.784 425 585c-5.957.488-5.957.488-8 0-3.167-4.145-5.114-9.341-7.313-14.063-3.961-8.438-7.981-16.837-12.351-25.074C396 543 396 543 396 540h-2l-.277-1.59c-.979-3.263-2.638-5.993-4.286-8.972-3.162-6.03-5.03-11.628-3.437-18.438 1.54-2.305 1.54-2.305 3-4z" fill="#F6BC56"/><path d="M871 533c-1.514 4.131-3.525 7.772-5.75 11.563-2.64 4.536-5.13 9.094-7.438 13.812-1.929 3.936-3.987 7.618-6.398 11.273-1.214 2.02-2.279 4.034-3.328 6.141l-1.042 2.063a209.493 209.493 0 0 0-2.014 4.134c-2.426 4.807-2.426 4.807-5.78 5.955-.742.02-1.485.04-2.25.059l1 2 2-1c-4.53 12.765-4.53 12.765-9 15-.656 2.527-.656 2.527-1 5h-2v15l5 1c-1.688.813-1.688.813-4 1-2.776-1.64-3.631-2.191-5-5-1.183-10.634-1.183-10.634 1-15h2l.375-2.188c.615-2.77 1.51-5.209 2.625-7.812h2v-5h2l.375-2.188c.615-2.77 1.51-5.209 2.625-7.812h2l.375-2.188c.615-2.77 1.51-5.209 2.625-7.812h2l.344-2.184c.688-2.954 1.735-5.206 3.156-7.879 1.841-3.467 1.841-3.467 3.031-7.183L851 552l2-1v-4h2l.25-2.063c1.197-4.687 2.885-8.808 7.125-11.375 2.946-.63 5.62-.702 8.625-.562z" fill="#F1B04B"/><path d="m772 448 2 1c.278 36.092.278 36.092-2 44h-2c-1.335 4.006-1.103 7.842-1.063 12.016l.012 2.694c.016 3.803.044 7.606.072 11.41.018 2.777.03 5.555.042 8.333l.025 2.58c.02 4.77-.284 9.263-1.088 13.967h-1c-.793-9.645-1.179-19.217-1.281-28.895l-.056-4.102c-.069-5.003-.13-10.006-.19-15.01-.05-4.27-.105-8.539-.165-12.808-.026-1.993-.047-3.985-.068-5.978l-.05-3.624-.039-3.203c.115-2.334.115-2.334-1.151-3.38l-1 6h-1a429.058 429.058 0 0 1-.25-7.688l-.102-2.185c-.07-3.83.068-5.677 2.164-9.002 2.523-2.45 5.195-4.288 8.188-6.125z" fill="#EFAE50"/><path d="M500 421c1.131 3.393 1.07 5.827.984 9.402l-.046 1.981c-.055 2.185-.12 4.37-.188 6.555l-.067 2.276c-.42 13.946-1.209 27.865-2.12 41.786l-.186 2.963a1367.37 1367.37 0 0 1-.56 8.35l-.159 2.533c-.28 3.8-.505 5.924-2.658 9.154-1.005-4.176-1.16-8.224-1.177-12.497l-.02-2.233a1834.6 1834.6 0 0 1-.041-7.278l-.013-2.515c-.02-4.387-.035-8.774-.044-13.16-.011-4.534-.046-9.068-.085-13.602-.026-3.487-.035-6.973-.038-10.46a615.496 615.496 0 0 0-.035-5.016 523.419 523.419 0 0 1-.017-7.001l-.039-2.097c.035-3.197.094-4.73 2.413-7.03A195.997 195.997 0 0 1 500 421z" fill="#F8D55A"/><path d="M875 615c6.475-.207 12.043.437 18.313 2 1.557.379 3.116.754 4.675 1.125l2.048.508c2.286.49 2.286.49 5.964.367v2l1.766.113c5.931.476 11.436 1.6 17.183 3.121 4.64 1.165 9.334 1.977 14.051 2.766v2l1.828.043c6.56.391 6.56.391 9.672 3.27 1.313 2.351 1.927 4.103 2.5 6.687l-1.59-.54c-6.024-2.027-12.08-3.926-18.16-5.773l-3.03-.921a1265.23 1265.23 0 0 0-22.479-6.555c-7.112-2.014-14.192-4.13-21.26-6.295-3.807-1.158-7.55-2.242-11.481-2.916v-1z" fill="#E2AF4A"/><path d="M914.625 650.125C917 651 917 651 920 653l-2.133 1.398c-11.43 7.55-22.525 15.517-33.441 23.79C879.323 682 879.323 682 876 682v2l-7 1c1.509-3.772 1.509-3.772 3.77-4.82 3.944-2.087 6.664-5.645 9.695-8.867C885 669 886.862 668.223 890 667c1.89-1.85 1.89-1.85 3.5-4 2.653-3.187 4.442-4.825 8.5-6 2.828-1.555 5.094-3.084 7.5-5.25 2.5-1.75 2.5-1.75 5.125-1.625z" fill="#E59C42"/><path d="M871 533c-1.514 4.131-3.525 7.772-5.75 11.563-3.258 5.581-6.191 11.248-8.926 17.109C855 564 855 564 852 566c-2-1-2-1-3.313-3.25-.687-2.75-.687-2.75.688-5.375L851 555v-3l2-1v-4h2l.25-2.063c1.197-4.687 2.885-8.808 7.125-11.375 2.946-.63 5.62-.702 8.625-.562z" fill="#F5BC55"/><path d="M764 466c2.465 2.465 2.237 3.843 2.257 7.207l-.017 2.193.006 2.311c.003 1.66.002 3.319-.002 4.978-.006 2.627.003 5.254.017 7.88.037 7.471.056 14.941.044 22.411-.005 4.567.013 9.134.046 13.701.008 1.74.007 3.48-.004 5.221-.014 2.437.002 4.873.025 7.31l-.035 2.175c.074 4.004.565 5.497 3.202 8.6L772 552c-4.462-1.363-6.486-3.075-9-7-.372-2.712-.519-5.008-.47-7.712l-.007-2.303c-.002-2.5.024-5 .051-7.5.005-1.74.008-3.48.01-5.218.008-3.639.028-7.276.06-10.914.039-4.674.057-9.347.067-14.02.01-4.45.03-8.9.05-13.349l.011-2.586c.012-2.401.03-4.802.051-7.204l.008-2.175c.054-4.904.054-4.904 1.169-6.019z" fill="#F9DB5C"/><path d="M636 390c0 4.218-2.17 6.944-4.313 10.438a632.277 632.277 0 0 0-11.562 20.062l-1.368 2.459c-2.878 5.233-5.421 10.545-7.757 16.041-1.22-4.062-.525-6.501.75-10.563l1.047-3.44c1.135-2.828 2.002-4.018 4.203-5.997v-2h2l.375-2.188c.615-2.77 1.51-5.209 2.625-7.812h2l.313-2.125c1.272-5.32 3.51-9.33 7.687-12.875 2.25-1.25 2.25-1.25 4-2z" fill="#F89841"/><path d="m934.188 626.438 2.73.308L939 627v2l1.828.043c6.56.391 6.56.391 9.672 3.27 1.313 2.351 1.927 4.103 2.5 6.687l-1.597-.544c-5.953-2.009-11.944-3.854-17.966-5.644l-2.767-.826c-2.223-.663-4.446-1.325-6.67-1.986 2.95-4.426 5.267-4.138 10.188-3.563z" fill="#E8B950"/><path d="m768 492 4 1c.38 15.731-.789 31.322-2 47h-1c-1.297-9.863-1.111-19.698-1.063-29.625.006-1.785.01-3.57.014-5.355.011-4.34.028-8.68.049-13.02z" fill="#FABF58"/><path d="m732 477 2 1a876.4 876.4 0 0 1-4.188 3.813l-2.355 2.144c-2.383 1.982-4.8 3.462-7.457 5.043a109.238 109.238 0 0 0-4 3.5c-2.866 2.57-5.69 4.532-9 6.5l-2.563 2.688C702 504 702 504 698 504v2h-2l-1 3c-3.563 1.188-3.563 1.188-7 2 1-3 1-3 4.063-4.688L695 505l-2-2 1-3c1.75-.625 1.75-.625 4-1l2.563-.563C703 498 703 498 706 498v-2c1.688-1.297 1.688-1.297 4-2.75 7.681-4.957 14.805-10.62 22-16.25z" fill="#F5D058"/><path d="M847 561h3v4h2c-.576 4.755-2.55 7.97-5 12h-2l-.813 2.25c-1.13 2.616-2.396 4.552-4.187 6.75v-4h-2l-1 2v-3h2l.375-2.188c.615-2.77 1.51-5.209 2.625-7.812h2l.375-2.188c.615-2.77 1.51-5.209 2.625-7.812z" fill="#E4A445"/><path d="M895 669c-2.98 3.173-6.115 6.01-9.5 8.75l-2.219 1.797c-2.465 1.57-4.404 2.068-7.281 2.453v2l-7 1c1.509-3.772 1.509-3.772 3.758-4.816 3.025-1.597 4.998-3.79 7.367-6.246 5.618-5.81 7.093-6.068 14.875-4.938z" fill="#EC9E45"/><path d="M409 725v2h-3l-.755 1.743c-1.424 2.581-3.06 4.3-5.16 6.366l-2.304 2.286-2.406 2.355-2.43 2.402c-1.977 1.954-3.959 3.903-5.945 5.848l-2-1c5.791-6.558 11.747-12.88 18-19l-5 2v-2h-11l1-2c6.67-2.07 14.246-3.161 21-1z" fill="#F7D65A"/><path d="m878 504 1 2h6l1 2-2.523.443c-3.092.544-6.184 1.09-9.275 1.638-1.338.237-2.675.472-4.013.707-1.924.338-3.847.68-5.771 1.02l-3.507.62c-2.96.517-2.96.517-5.911 1.572a65.305 65.305 0 0 1-4.188.063L847 514v-1l1.934-.367 2.504-.508 2.496-.492L856 511l1-2c2.25-.379 2.25-.379 5-.563 3.308.028 3.308.028 6-1.437 1.682-.233 3.371-.413 5.063-.563l2.785-.253L878 506v-2z" fill="#F49E43"/><path d="M768 420c3.188.313 3.188.313 6 1l-3 2-1.719 1.29-1.781 1.335-1.781 1.352C764 428 764 428 761 428v2c-3.752 3.863-8.11 7.699-13 10l-2-1a90.488 90.488 0 0 1 4-4h2l.625-1.625c2.99-5.164 6.754-8.4 12.375-10.375l1.438-1.688L768 420z" fill="#F87B34"/><path d="M801 930h1c1.253 4.942 1.294 9.87 1.375 14.938l.113 2.67c.059 4.323-.027 7.45-2.73 10.955-3.433 3.034-5.19 3.396-9.598 3.617-3.032-.253-4.88-1.194-7.16-3.18v-2h2l1 2c1.603.081 3.208.14 4.813.188l2.707.105c2.469-.092 2.469-.092 4.103-1.438 1.944-2.619 1.81-4.596 1.889-7.835l.107-3.526.068-3.682.104-3.716c.083-3.032.152-6.064.209-9.096z" fill="#FBDE5D"/><path d="M845 577c1 3 1 3 .145 5.043l-1.332 2.144-1.293 2.168L841 588h-4l1 2 2-1c-1.45 3.791-3.152 7.387-5 11-2-2-2-2-2.313-4.125.539-4.95 1.764-9.46 5.5-12.875l1.813-1 1 2 4-7z" fill="#F7D259"/><path d="M498 431h1c.2 4.437.382 8.875.563 13.313l.17 3.767c.291 7.406.179 14.56-.733 21.92h-1c-.852-3.692-1.129-7.109-1.133-10.895l-.004-3.396.012-3.522-.012-3.486c.007-5.996.218-11.774 1.137-17.701z" fill="#F4B553"/><path d="m389 507 4 1-2 1 1 2c.168 2.023.168 2.023.188 4.375l.042 2.336c-.252 2.507-.978 4.122-2.23 6.289l-1-3-3 1c-.081-1.75-.14-3.5-.188-5.25l-.105-2.953c.332-3.172 1.18-4.467 3.293-6.797z" fill="#D7A144"/><path d="M914.625 650.125C917 651 917 651 920 653l-9 6-2-1 1-3-5 5-4-2 2.688-1.75c2.167-1.42 3.93-2.807 5.875-4.563C912 650 912 650 914.625 650.125z" fill="#F8D25A"/><path d="M776 834c1.324 2.648 1.019 4.49.879 7.445l-.147 3.262-.17 3.418-.158 3.441c-.13 2.812-.265 5.623-.404 8.434h-2c-.873-4.554-1.194-8.928-1.25-13.563l-.078-3.878c.343-3.72 1.152-5.575 3.328-8.559z" fill="#F3CB56"/><path d="M808 545c-5.892 2.75-12.354 3.647-18.75 4.5-3.258.398-3.258.398-6.25 1.563-3.456 1.08-6.4 1.081-10 .937v-2c4.5-.882 9.003-1.755 13.507-2.618 1.532-.296 3.064-.593 4.595-.894 2.2-.431 4.402-.853 6.605-1.273l2.074-.414c3.235-.607 5.038-.861 8.219.199z" fill="#FAD95C"/><path d="m707 879 2 2-2.887.043c-7.913-.126-7.913-.126-14.488 3.52L690 887l-1-5c5.98-5.452 10.473-5.75 18-3z" fill="#EABF51"/><path d="M901 861h2c-.573 2.867-.861 3.861-3 6-2 .259-2 .259-4.43.266l-2.66.007-2.785-.023-2.762.023-2.668-.007-2.437-.007c-2.473-.284-4.114-1.024-6.258-2.259 2.875-.169 5.75-.335 8.625-.5l2.45-.145c4.315-.245 8.6-.411 12.925-.355l1-3zM571 939l2 1c-8.21 9.534-8.21 9.534-12 13h-2l-1 3h-2v2c-2.5 1.625-2.5 1.625-5 3 1.487-3.466 3.457-5.69 6.133-8.328l2.441-2.422 2.551-2.5 2.574-2.547A2085.82 2085.82 0 0 1 571 939z" fill="#FBDE5D"/><path d="M947.938 630.625c2.62 1.747 3.665 3.58 5.062 6.375v2c-.534-.182-1.067-.364-1.617-.55-5.759-1.944-11.553-3.734-17.383-5.45v-1c3.522-.08 6.62-.04 10 1v-2c2-1 2-1 3.938-.375z" fill="#F2CC56"/><path d="m900.8 658.191 2.2.809c-1.27 3.812-2.607 4.027-6 6l-2.063 2.25L893 669c-2.121-.39-2.121-.39-4-1a302.387 302.387 0 0 1 4.188-5.063l2.355-2.847C898 658 898 658 900.801 658.19z" fill="#E4B74C"/><path d="m732 477 2 1a876.4 876.4 0 0 1-4.188 3.813l-2.355 2.144c-2.383 1.981-4.803 3.457-7.457 5.043-2.105 1.8-4.114 3.677-6.133 5.574C712 496 712 496 709 496v-2c1.372-.96 2.753-1.91 4.168-2.809 6.574-4.275 12.661-9.363 18.832-14.191z" fill="#FAD85B"/><path d="m923.75 624.438 2.422.308L928 625l1 4c-4.516.077-8.59.102-13-1l-1-3c3.122-.967 5.52-.99 8.75-.563z" fill="#E1AD4A"/><path d="m566 941 3 1-15 15-2-2 14-14z" fill="#ECB34E"/><path d="M780 829c1.628.038 3.254.155 4.875.313l2.68.238C790 830 790 830 793 832l-2.633.148-3.492.227-3.445.21c-3.414.413-6.259 1.094-9.43 2.415-.969 2.032-.969 2.032-1 4-.375-2.25-.375-2.25 0-5 2.938-2.25 2.938-2.25 6-4l1-1z" fill="#E2B34C"/><path d="M885 669c0 3 0 3-1.715 4.902l-4.437 4.063c-1.9 2.091-2.46 3.28-2.848 6.035l-7 1c1.509-3.772 1.509-3.772 3.75-4.813 3.06-1.615 5.09-3.84 7.5-6.312l2.703-2.758L885 669z" fill="#E67834"/><path d="M602 499c.75 1.688.75 1.688 1 4-2.374 3.743-4.883 6.316-9 8-2.988.144-5.014-.266-8-1-1.5-2.063-1.5-2.063-2-4 5.875 1.875 5.875 1.875 7 3 5.029-1.437 6.957-3.942 10-8l1-2z" fill="#FADD5C"/><path d="m453 610 2 1c.892 8.362.892 8.362-1.09 12-2.892 3.192-4.384 3.95-8.785 4.375L442 627l1-2c2.314-.73 4.648-1.401 7-2v-2l2-1c.468-2.356.468-2.356.625-5.063l.227-2.785L453 610z" fill="#FADB5C"/><path d="m330 630 4 2-2.438 1.438C328.01 636.99 328.115 640.14 328 645c-2.574-2.26-2.968-2.787-3.5-6.375.616-4.464 2.089-5.81 5.5-8.625z" fill="#ECBE50"/><path d="M636 390c0 3.67-1.075 5.1-3 8.188l-1.688 2.73L630 403c-2-2-2-2-2.375-4.375.494-3.457 1.69-4.462 4.375-6.625 2.25-1.25 2.25-1.25 4-2z" fill="#EEC754"/><path d="M432 895c2.75.313 2.75.313 5 1l-1 2c-2.547.781-2.547.781-5.75 1.5-3.09.7-5.968 1.385-8.902 2.586-3.165 1.232-5.987 1.046-9.348.914 3.347-3.347 8.07-3.29 12.617-4.121 3.284-.853 4.799-1.81 7.383-3.879z" fill="#FADD5C"/><path d="M627 397c1.667 2.55 2.01 3.85 1.813 6.938-.842 3.172-1.872 5.422-3.813 8.062h-2c.114-1.46.242-2.917.375-4.375.07-.812.14-1.624.21-2.46C624 403 624 403 626 401c.643-2.069.643-2.069 1-4z" fill="#DE9943"/><path d="m592 890 4 1-7 8-3-1c1.44-3.36 3.124-5.716 6-8z" fill="#F4C355"/><path d="M834 587h1v5h-2c.095.626.19 1.253.29 1.898.11.818.22 1.635.335 2.477l.352 2.46L834 601l-2 2-4-2 2-5h2v-5h2v-4z" fill="#D68539"/><path d="m412 851 2 1-1 12-4-1 3-12z" fill="#EEC354"/><path d="m839 589 1 2c-.996 2.164-.996 2.164-2.438 4.625l-1.433 2.477L835 600c-2-2-2-2-2.313-4.438C833 593 833 593 834.313 591.25 836 590 836 590 839 589z" fill="#F6BF52"/><path d="m627 690 3 2v2h2v2h-2v2l-3 1c-2-3-2-3-2-6h2v-3z" fill="#D7823A"/><path d="m622 407 2 1c.18 3.947.094 6.598-2 10h-5l2-1c.369-1.66.696-3.328 1-5 .634-1.68 1.293-3.35 2-5z" fill="#EC672D"/><path d="m768 492 4 1v9l-3-1c-1.478-2.957-1.06-5.742-1-9z" fill="#FBDE5D"/><path d="m916 651 4 2-9 6-2-1 2-5h5v-2z" fill="#FAC258"/><path d="m736 444 3 2-8 7-3-3 2.313-1.313c2.268-1.424 3.907-2.72 5.687-4.687z" fill="#F3321C"/><path d="m857 743 2 1zm0 2v2c-3.155.936-5.966 1.106-9.25 1.063l-2.703-.028L843 748v-1a785.48 785.48 0 0 1 5.875-1.563l3.305-.878C855 744 855 744 857 745z" fill="#DCAB4A"/><path d="m886 670 2 1c-5 5-5 5-6.75 6.625-1.507 1.471-1.507 1.471-2.25 4.375h-3c1.477-3.452 3.438-5.65 6.125-8.25l2.195-2.14L886 670z" fill="#FADC5C"/><path d="M909 623h9v3c-2.788 1.033-3.868 1.045-6.75.063L909 625v-2z" fill="#FADB5C"/><path d="M796 468h1v21h-1v-21zM801 909h1v16h-1v-16zM484 983h9v1h-9v-1zM530 906h1v7h-1v-7zM804 701h1v7h-1v-7z"/><path d="M476 943h1v6h-1v-6z" fill="#FA0001"/><path d="M403 796h6v1h-6v-1z"/><path d="m740 471 2 1-4 2 2-3z" fill="#ECAF4E"/><path d="M622 1019h5v1h-5v-1zM760 993h5v1h-5v-1zM833 860h5v1h-5v-1zM600 860h5v1h-5v-1zM800 855h5v1h-5v-1zM453 591h1v5h-1v-5zM891 868l4 1zM667 860l4 1zM371 791l4 1zM858 906l3 1z"/><path d="m667 899 1 2-2-1 1-1z" fill="#FA0001"/><path d="m890 796 3 1zM915 791l3 1zM339 786l3 1zM424 632l3 1zM469 545l3 1zM446 540l3 1zM839 901l2 1zM439 896l2 1z"/><path d="m576 893 2 1z" fill="#FA0001"/><path d="m391 891 2 1zM930 745l2 1z"/><path d="m949 735 2 1z" fill="#D28439"/><path d="m390 640 2 1zM411 635l2 1zM831 627l2 1zM373 617l2 1zM808 545l2 1z"/><path d="m738 442 2 1z" fill="#FA0001"/></svg>